<?xml version="1.0" encoding="UTF-8"?>
<svg width="25px" height="46px" viewBox="0 0 25 46" version="1.1" xmlns="http://www.w3.org/2000/svg" xmlns:xlink="http://www.w3.org/1999/xlink">
    <!-- Generator: Sketch 52.1 (67048) - http://www.bohemiancoding.com/sketch -->
    <title>Path</title>
    <desc>Created with Sketch.</desc>
    <g id="Page-1" stroke="none" stroke-width="1" fill="none" fill-rule="evenodd">
        <g id="Manufacture" transform="translate(-1525.000000, -970.000000)" fill="#FFFFFF">
            <g id="content" transform="translate(0.000000, 618.000000)">
                <g id="slider-arrows" transform="translate(50.000000, 352.000000)">
                    <g id="down-arrow" transform="translate(1487.500000, 23.000000) scale(-1, 1) rotate(90.000000) translate(-1487.500000, -23.000000) translate(1464.500000, 10.500000)">
                        <path d="M45.3316239,0.634920635 C44.7025641,-8.32667268e-17 43.6803419,-8.32667268e-17 43.0512821,0.634920635 L23,20.9126984 L2.90940171,0.634920635 C2.28034188,-8.32667268e-17 1.25811966,-8.32667268e-17 0.629059829,0.634920635 C-7.21644966e-16,1.26984127 -7.21644966e-16,2.3015873 0.629059829,2.93650794 L21.8205128,24.3253968 C22.1350427,24.6428571 22.5282051,24.8015873 22.9606838,24.8015873 C23.3538462,24.8015873 23.7863248,24.6428571 24.1008547,24.3253968 L45.2923077,2.93650794 C45.9606838,2.3015873 45.9606838,1.26984127 45.3316239,0.634920635 Z" id="Path"></path>
                    </g>
                </g>
            </g>
        </g>
    </g>
</svg>