<?xml version="1.0" encoding="UTF-8"?>
<svg width="60px" height="60px" viewBox="0 0 60 60" version="1.1" xmlns="http://www.w3.org/2000/svg" xmlns:xlink="http://www.w3.org/1999/xlink">
    <!-- Generator: Sketch 52.1 (67048) - http://www.bohemiancoding.com/sketch -->
    <title>worldwide</title>
    <desc>Created with Sketch.</desc>
    <g id="Page-1" stroke="none" stroke-width="1" fill="none" fill-rule="evenodd">
        <g id="Main" transform="translate(-340.000000, -1920.000000)" fill="#FFFFFF" fill-rule="nonzero">
            <g id="img-block" transform="translate(0.000000, 1752.000000)">
                <g id="Group-2" transform="translate(322.000000, 158.000000)">
                    <g id="item1" transform="translate(0.000000, 10.000000)">
                        <g id="worldwide" transform="translate(18.000000, 0.000000)">
                            <path d="M30.0106217,3.20871381e-07 C18.0068721,-0.00174967899 7.15813185,7.15487474 2.43349098,18.1919989 L2.05956887,18.3159988 L2.20453867,18.7509988 C-4.01616557,34.0967476 3.37841915,51.5808712 18.7209733,57.8028707 C22.3043519,59.2561205 26.134929,60.0021205 30.0017486,59.9999955 C46.5667981,60.0024955 59.9975005,46.5729966 60,30.0044979 C60.0024995,13.4359992 46.5757962,0.00237532068 30.0106217,3.20871381e-07 Z M53.5373462,45.1254967 L51.997167,43.5859968 L51.997167,39.9999971 C51.9989166,39.8452471 51.9646737,39.6922471 51.8971878,39.5529971 L47.998,31.7639978 L47.998,27.9999981 C47.998,27.6657481 47.8311597,27.3534981 47.5530927,27.1679981 L44.5537174,25.1679983 C44.3186414,25.0109983 44.0280769,24.9608733 43.753884,25.0299983 L40.0806492,25.9479982 L33.9109343,23.2999984 L33.0621111,17.3519989 L35.4146211,14.9999991 L40.4645692,14.9999991 L42.1642152,17.5549989 C42.3176832,17.7847489 42.5595078,17.9408739 42.832076,17.9859989 L48.8308265,18.9859988 C48.991543,19.0129988 49.1562587,18.9998738 49.3107266,18.9479988 L54.8355757,17.1059989 C59.4694855,26.0003732 58.9738387,36.6979974 53.5373462,45.1254967 Z M49.4137051,9.85399952 L47.7880437,10.9379994 L43.2559877,10.0309995 L40.3156002,9.05199959 C40.1356377,8.99087459 39.9419281,8.9831246 39.7577164,9.02999959 L36.0404907,9.95899952 L34.4108302,9.41599956 L35.6185786,6.99999976 L38.9998743,6.99999976 C39.154967,7.00012476 39.3079351,6.96424976 39.4467812,6.89499976 L42.9060606,5.1649999 C45.2883144,6.4087498 47.4798579,7.98774968 49.4137051,9.85399952 Z M19.0510296,4.23299998 L21.4505298,5.83299985 C21.5685052,5.91149984 21.7017274,5.96399984 21.8414483,5.98699984 L26.6864391,6.79499977 L26.2135376,8.20999966 L23.6890635,9.05299959 C23.4629856,9.12824958 23.2711505,9.28174957 23.1481762,9.48599955 L20.2767743,14.2719992 L15.6647349,17.0399989 L8.86615107,18.0109989 C8.37337872,18.0806239 8.00695504,18.5022488 8.00633017,18.9999988 L8.00633017,21.9999985 C8.00633017,22.2652485 8.1118082,22.5194985 8.29926915,22.7069985 L10.0059137,24.4139983 L10.0059137,26.1319982 L5.84678,23.3579984 L4.33809426,18.8309988 C7.20849636,12.2709993 12.4695255,7.05099975 19.0510296,4.23299998 Z M16.2046225,37.0199973 L11.6855638,36.1149974 L10.0059137,32.7639977 L10.0059137,30.4139979 L13.7311377,26.6879982 L15.1098505,29.4469979 C15.2791902,29.7859979 15.6257431,30.0001229 16.0046641,29.9999979 L22.4373242,29.9999979 L25.1457601,34.5149975 C25.3264724,34.8158725 25.6516547,34.9998725 26.0025816,34.9999975 L28.7820026,34.9999975 L28.0821484,38.5069972 L24.2969369,42.2929969 C24.109101,42.4803719 24.003373,42.7346219 24.0029981,42.9999968 L24.0029981,45.4999966 L20.4037478,48.1999964 C20.1520502,48.3888714 20.0038311,48.6852464 20.0038311,48.9999964 L20.0038311,52.6119961 L18.7600902,52.1999961 L17.0044559,47.8079965 L17.0044559,37.9999973 C17.0045809,37.5247473 16.6701505,37.1149973 16.2046225,37.0199973 Z M13.1992485,52.3926211 C3.77258705,45.3189967 -0.213957561,33.0969976 3.22832542,21.8239986 L4.05915236,24.3159984 C4.12913778,24.5268733 4.26735899,24.7084983 4.45207052,24.8319983 L9.43603237,28.154998 L8.29926915,29.292998 C8.1118082,29.4804979 8.00633017,29.7347479 8.00633017,29.9999979 L8.00633017,32.9999977 C8.0062052,33.1551226 8.04207273,33.3081226 8.1113083,33.4469976 L10.1108918,37.4469973 C10.249363,37.7232473 10.5076841,37.9199973 10.810746,37.9799973 L15.0098713,38.8189972 L15.0098713,47.9999964 C15.0097464,48.1269964 15.0338663,48.2529964 15.0808566,48.3709964 L17.0804401,53.370996 C17.1899172,53.644121 17.4141205,53.855246 17.6933124,53.947996 L20.6926876,54.9479959 C20.7929168,54.9819959 20.8978949,54.9994959 21.0036229,54.9999959 C21.5557579,54.9999959 22.0034146,54.5522459 22.0034146,53.999996 L22.0034146,49.4999963 L25.6026649,46.7999965 C25.8543625,46.6111216 26.0025816,46.3147466 26.0025816,45.9999966 L26.0025816,43.4139968 L29.7088096,39.7069971 C29.8481556,39.5673721 29.9431358,39.3894971 29.9817527,39.1959972 L30.9815445,34.1959976 C31.0897719,33.6543726 30.7385951,33.1276226 30.1970829,33.0193727 C30.1327213,33.0064977 30.0673599,32.9999977 30.0017486,32.9999977 L26.5684637,32.9999977 L23.8600279,28.484998 C23.6793155,28.184123 23.3541333,28.0001231 23.0032064,27.9999981 L16.6225354,27.9999981 L14.9048932,24.5529983 C14.7610482,24.2652484 14.4876051,24.0642484 14.1700463,24.0129984 C13.8526124,23.9581234 13.5285549,24.0628734 13.3032268,24.2929984 L12.0054972,25.5859983 L12.0054972,23.9999984 C12.0054972,23.7347484 11.9000191,23.4804984 11.7125582,23.2929984 L10.0059137,21.5859986 L10.0059137,19.8669987 L16.1466346,18.9899988 C16.2784821,18.9708738 16.4053307,18.9256238 16.5195569,18.8569988 L21.5185156,15.856999 C21.6587364,15.772749 21.7762119,15.6552491 21.8604444,15.5149991 L24.6698592,10.8319994 L27.3183075,9.94799952 C27.6173702,9.84987453 27.8520713,9.61524954 27.9501759,9.31599957 L28.9499677,6.31599981 C29.1231816,5.79162485 28.8386158,5.2259999 28.3143501,5.05274991 C28.2659851,5.03674991 28.2163705,5.02449991 28.1661309,5.01599992 L22.3793363,4.05099999 L21.3625481,3.37300005 C27.6541126,1.32475021 34.4684432,1.57825019 40.5905429,4.08799999 L38.7639234,4.99999992 L35.0007073,4.99999992 C34.6199116,4.99787492 34.2711093,5.2123749 34.1008947,5.55299987 L32.1013112,9.55299955 C31.8549875,10.0472495 32.0558207,10.6477495 32.5499678,10.8941244 C32.592084,10.9151244 32.635575,10.9331244 32.6801907,10.9479994 L35.6795659,11.9479994 C35.8595284,12.0091244 36.0532381,12.0168743 36.2374497,11.9699994 L39.9546754,11.0409994 L42.6781081,11.9479994 C42.7171,11.9619994 42.7572166,11.9727494 42.7980831,11.9799994 L47.7970419,12.9799993 C48.0569877,13.0329993 48.3274314,12.9797493 48.5478855,12.8319993 L50.8234115,11.3139994 C51.9433032,12.5616243 52.9497186,13.9066242 53.830785,15.3329991 L48.9118096,16.9729989 L43.585919,16.084999 L41.8262855,13.4449992 C41.641824,13.1683743 41.3318885,13.0016243 40.9994578,12.9999993 L35.0007073,12.9999993 C34.7355125,12.9999993 34.4813155,13.1054993 34.2938545,13.2929992 L31.2944793,16.292999 C31.0717757,16.515624 30.9669225,16.830249 31.0115382,17.1419989 L32.01133,24.1419984 C32.0616945,24.4881233 32.2891471,24.7827483 32.611205,24.9189983 L39.6097472,27.9189981 C39.8102055,28.0058731 40.0339089,28.0237481 40.2456148,27.9699981 L43.8158711,27.0769981 L45.9984165,28.534998 L45.9984165,31.9999977 C45.9966669,32.1547477 46.0309097,32.3077477 46.0983957,32.4469977 L49.9975835,40.2359971 L49.9975835,43.9999968 C49.9975835,44.2652467 50.1030615,44.5194967 50.2905225,44.7069967 L52.3820868,46.7999965 C43.106144,59.1666205 25.5632981,61.6706203 13.1992485,52.3926211 Z" id="Shape"></path>
                        </g>
                    </g>
                </g>
            </g>
        </g>
    </g>
</svg>