<?xml version="1.0" encoding="UTF-8"?>
<svg width="60px" height="71px" viewBox="0 0 60 71" version="1.1" xmlns="http://www.w3.org/2000/svg" xmlns:xlink="http://www.w3.org/1999/xlink">
    <!-- Generator: Sketch 52.1 (67048) - http://www.bohemiancoding.com/sketch -->
    <title>cream</title>
    <desc>Created with Sketch.</desc>
    <g id="Page-1" stroke="none" stroke-width="1" fill="none" fill-rule="evenodd">
        <g id="Main" transform="translate(-915.000000, -1910.000000)" fill="#FFFFFF">
            <g id="img-block" transform="translate(0.000000, 1752.000000)">
                <g id="Group-2" transform="translate(322.000000, 158.000000)">
                    <g id="item3" transform="translate(581.000000, 0.000000)">
                        <g id="cream" transform="translate(12.000000, 0.000000)">
                            <path d="M56.5017258,56.0126303 L60,17.1428571 L34.2857143,17.1428571 L37.7839885,56.0126303 C36.4822781,56.5057891 35.5514914,57.7375497 35.5514914,59.1863456 C35.5514914,60.6658218 36.524007,61.9157634 37.8697646,62.3861959 L37.8697646,67.1405191 C37.8697646,69.0199766 39.4299624,70.5494505 41.3471743,70.5494505 L52.93854,70.5494505 C54.8557519,70.5494505 56.4159497,69.0199766 56.4159497,67.1405191 L56.4159497,62.3861959 C57.7617073,61.9157634 58.7342229,60.6658218 58.7342229,59.1863456 C58.7342229,57.7375497 57.8034362,56.5057891 56.5017258,56.0126303 Z M55.2568131,19.4154781 L57.4684457,19.4154781 L57.2632786,21.6880991 L55.2568131,21.6880991 L55.2568131,19.4154781 Z M50.6202669,19.4154781 L52.93854,19.4154781 L52.93854,21.6880991 L50.6202669,21.6880991 L50.6202669,19.4154781 Z M45.9837206,19.4154781 L48.3019937,19.4154781 L48.3019937,21.6880991 L45.9837206,21.6880991 L45.9837206,19.4154781 Z M41.3471743,19.4154781 L43.6654474,19.4154781 L43.6654474,21.6880991 L41.3471743,21.6880991 L41.3471743,19.4154781 Z M36.8184277,19.4154781 L39.0289011,19.4154781 L39.0289011,21.6880991 L37.0224357,21.6880991 L36.8184277,19.4154781 Z M54.0976766,67.1405191 C54.0976766,67.7666261 53.5772243,68.2768296 52.93854,68.2768296 L41.3471743,68.2768296 C40.70849,68.2768296 40.1880377,67.7666261 40.1880377,67.1405191 L40.1880377,62.5952771 L42.6709082,62.5952771 C43.1890423,64.5497311 44.9891814,66.0042086 47.1428571,66.0042086 C49.2965329,66.0042086 51.096672,64.5497311 51.614806,62.5952771 L54.0976766,62.5952771 L54.0976766,67.1405191 Z M45.146824,62.5952771 L49.1388903,62.5952771 C48.7366699,63.2713818 47.9971408,63.7315876 47.1428571,63.7315876 C46.2885735,63.7315876 45.5490444,63.2713818 45.146824,62.5952771 Z M55.2568131,60.3226561 L39.0289011,60.3226561 C38.3902169,60.3226561 37.8697646,59.8124527 37.8697646,59.1863456 C37.8697646,58.5602385 38.3902169,58.0500351 39.0289011,58.0500351 L55.2568131,58.0500351 C55.8954974,58.0500351 56.4159497,58.5602385 56.4159497,59.1863456 C56.4159497,59.8124527 55.8954974,60.3226561 55.2568131,60.3226561 Z M39.0671526,44.4143091 L38.0447942,33.0512041 L56.2409201,33.0512041 L55.2185616,44.4143091 L39.0671526,44.4143091 Z M55.0133945,46.6869301 L54.195044,55.7774141 L40.0906702,55.7774141 L39.2723198,46.6869301 L55.0133945,46.6869301 Z M37.8697646,30.7785831 L37.8697646,31.1058405 L37.2264438,23.9607201 L57.0592705,23.9607201 L56.4159497,31.1058405 L56.4159497,30.7785831 L37.8697646,30.7785831 Z" id="Shape" fill-rule="nonzero"></path>
                            <rect id="Rectangle" x="42.8571429" y="34.9450549" width="9.23076923" height="2.63736264"></rect>
                            <rect id="Rectangle" x="42.8571429" y="39.5604396" width="9.23076923" height="2.63736264"></rect>
                            <path d="M30,22.7578873 L27.6923077,21.0510457 L27.6923077,15.9305211 L19.6153846,15.9305211 L19.6153846,9.10315491 L24.2307692,9.10315491 L24.2307692,0 L13.6373077,0 L3.46153846,3.76301666 L3.46153846,9.10315491 L12.6923077,9.10315491 L12.6923077,15.9305211 L4.61538462,15.9305211 L4.61538462,21.0510457 L2.30769231,22.7578873 C0.863076923,23.8263701 0,25.52866 0,27.3094647 L0,64.8599787 C0,67.9971535 2.58807692,70.5494505 5.76923077,70.5494505 L26.5384615,70.5494505 C29.7196154,70.5494505 32.3076923,67.9971535 32.3076923,64.8599787 L32.3076923,27.3094647 C32.3076923,25.52866 31.4446154,23.8263701 30,22.7578873 Z M5.76923077,6.82736618 L5.76923077,5.34013825 L14.055,2.27578873 L21.9230769,2.27578873 L21.9230769,6.82736618 L5.76923077,6.82736618 Z M17.3076923,9.10315491 L17.3076923,15.9305211 L15,15.9305211 L15,9.10315491 L17.3076923,9.10315491 Z M6.92307692,18.2063098 L25.3846154,18.2063098 L25.3846154,20.4820985 L6.92307692,20.4820985 L6.92307692,18.2063098 Z M2.30769231,27.3094647 C2.30769231,26.2409819 2.82576923,25.2191528 3.69230769,24.5785183 L6.15346154,22.7578873 L26.1530769,22.7578873 L28.6142308,24.5785183 C29.4807692,25.2191528 29.9988462,26.2409819 29.9988462,27.3094647 L29.9988462,31.8610422 L2.30769231,31.8610422 L2.30769231,27.3094647 Z M30,64.8599787 C30,66.742056 28.4469231,68.2736618 26.5384615,68.2736618 L5.76923077,68.2736618 C3.86076923,68.2736618 2.30769231,66.742056 2.30769231,64.8599787 L2.30769231,54.6189295 L30,54.6189295 L30,64.8599787 Z M30,52.3431407 L2.30769231,52.3431407 L2.30769231,34.1368309 L30,34.1368309 L30,52.3431407 Z" id="Shape" fill-rule="nonzero"></path>
                            <path d="M22.8787125,41.2563343 C22.4125483,39.7867017 21.2055985,38.7300428 19.7517201,38.4474211 C19.042089,37.1150619 17.6782127,36.2637363 16.1539481,36.2637363 C14.6296836,36.2637363 13.2658072,37.1150619 12.5561761,38.4474211 C11.1011439,38.7300428 9.89419405,39.7878552 9.42918375,41.2563343 C8.96417345,42.7225062 9.33456627,44.2994197 10.3511273,45.394146 C10.1561229,46.8903104 10.7642133,48.3945497 11.9884712,49.3058603 C13.2173446,50.2206317 14.8108414,50.3544444 16.1539481,49.7072985 C16.7101143,49.9749239 17.3101276,50.1098901 17.908987,50.1098901 C18.754775,50.1098901 19.5994091,49.8422647 20.319425,49.3058603 C21.5436829,48.3945497 22.1517733,46.8903104 21.956769,45.394146 C22.9721761,44.2994197 23.3437228,42.7225062 22.8787125,41.2563343 Z M20.0021103,44.0594796 L19.3363263,44.5508952 L19.5890242,45.3387752 C19.8417221,46.1278087 19.5809471,46.9779808 18.9405483,47.4544001 C18.3163037,47.9169768 17.4751312,47.9123626 16.8451173,47.4394039 L16.1539481,46.9214564 L15.4616251,47.4394039 C14.8304573,47.9123626 13.9881309,47.9169768 13.3661941,47.4544001 C12.7257952,46.9779808 12.4650202,46.1278087 12.7177181,45.3387752 L12.9704161,44.5508952 L12.3046321,44.0594796 C11.6538484,43.5772925 11.3815347,42.7317346 11.6284632,41.9530832 C11.8707763,41.1894279 12.5584838,40.6784018 13.3408089,40.6784018 C13.3431166,40.6784018 13.3442705,40.6784018 13.3465782,40.6784018 L14.1969817,40.6807089 L14.4508335,39.8697578 C14.6954543,39.0934135 15.3797002,38.5708518 16.1539481,38.5708518 C16.928196,38.5708518 17.612442,39.0934135 17.8559089,39.8697578 L18.1097607,40.6807089 L18.9601641,40.6784018 C18.9624719,40.6784018 18.9636258,40.6784018 18.9659335,40.6784018 C19.7482585,40.6784018 20.4359661,41.1894279 20.6782791,41.9530832 C20.9252077,42.7317346 20.6540478,43.5772925 20.0021103,44.0594796 Z" id="Shape" fill-rule="nonzero"></path>
                            <rect id="Rectangle" x="25.0549451" y="36.2637363" width="2.63736264" height="2.63736264"></rect>
                            <rect id="Rectangle" x="25.0549451" y="48.1318681" width="2.63736264" height="2.63736264"></rect>
                            <rect id="Rectangle" x="4.61538462" y="48.1318681" width="2.63736264" height="2.63736264"></rect>
                            <rect id="Rectangle" x="4.61538462" y="36.2637363" width="2.63736264" height="2.63736264"></rect>
                            <rect id="Rectangle" x="14.5054945" y="41.5384615" width="2.63736264" height="2.63736264"></rect>
                        </g>
                    </g>
                </g>
            </g>
        </g>
    </g>
</svg>