<?xml version="1.0" encoding="UTF-8"?>
<svg width="62px" height="66px" viewBox="0 0 62 66" version="1.1" xmlns="http://www.w3.org/2000/svg" xmlns:xlink="http://www.w3.org/1999/xlink">
    <!-- Generator: Sketch 52.1 (67048) - http://www.bohemiancoding.com/sketch -->
    <title>wheat-grain-bag</title>
    <desc>Created with Sketch.</desc>
    <g id="Page-1" stroke="none" stroke-width="1" fill="none" fill-rule="evenodd">
        <g id="Main" transform="translate(-629.000000, -1916.000000)" fill-rule="nonzero">
            <g id="img-block" transform="translate(0.000000, 1752.000000)">
                <g id="Group-2" transform="translate(322.000000, 158.000000)">
                    <g id="item2" transform="translate(274.000000, 7.000000)">
                        <g id="wheat-grain-bag" transform="translate(34.000000, 0.000000)">
                            <path d="M19.464,51.0496 C20.1472,51.7296 21.0832,51.9024 20.6568,52.3336 L15.7,56.5008 C14.708,57.5032 13.4896,55.4736 13.9664,54.9968 L18.1728,49.856 C18.6024,49.4256 18.7808,50.3624 19.464,51.0496 Z" id="Path" fill="#FFFFFF"></path>
                            <path d="M29.7144,37.0736 C31.3048,38.664 35.2576,37.3632 33.1616,31.8208 C31.2976,26.8744 33.9896,24.7376 33.9896,24.7376 C32.7136,25.1632 26.1744,33.5208 29.7144,37.0736 Z" id="Path" fill="#FFFFFF"></path>
                            <path d="M24.6008,42.1848 C26.1912,43.7752 30.1496,42.4744 28.0448,36.924 C26.1792,31.9856 28.8776,29.8384 28.8776,29.8384 C27.596,30.2672 21.0464,38.6392 24.6008,42.1848 Z" id="Path" fill="#FFFFFF"></path>
                            <path d="M43.6496,27.044 C42.4152,27.3152 32.076,31.5176 35.8248,35.2688 C39.5992,39.0368 43.6496,27.044 43.6496,27.044 Z" id="Path" fill="#FFFFFF"></path>
                            <path d="M33.6704,42.5416 C28.1256,40.4584 26.8192,44.4096 28.4184,46 C31.9688,49.5504 40.3352,43.0008 40.7632,41.7208 C40.7632,41.7248 38.6208,44.4136 33.6704,42.5416 Z" id="Path" fill="#FFFFFF"></path>
                            <path d="M6.212,6.8744 L14.5696,14.6624 L44.6768,14.6624 L53.0368,6.8744 C53.0368,6.8744 48.8864,1.0624 42.0208,0.2984 C35.3232,-0.4472 32.9776,3.6704 29.6272,3.828 C26.268,3.6712 23.9392,-0.4432 17.2288,0.2984 C10.3728,1.0624 6.212,6.8744 6.212,6.8744 Z" id="Path" stroke="#FFFFFF" stroke-width="2"></path>
                            <path d="M46.9384,19.6664 L12.312,19.6664 C12.312,19.6664 -4.312,32.752 1.148,56.8744 C1.148,56.8744 2.9664,63.8424 11.324,63.8424 L47.9336,63.8424 C56.2808,63.8424 58.0992,56.8744 58.0992,56.8744 C63.5592,32.752 46.9384,19.6664 46.9384,19.6664 Z" id="Path" stroke="#FFFFFF" stroke-width="2"></path>
                            <path d="M28.4096,47.8184 C22.8528,45.7224 21.556,49.6784 23.1592,51.2776 C26.7056,54.8192 35.0792,48.2648 35.4936,46.9904 C35.4936,46.9904 33.3432,49.6864 28.4096,47.8184 Z" id="Path" fill="#FFFFFF"></path>
                            <path d="M22.7864,42.1928 C20.92,37.2464 23.6208,35.1112 23.6208,35.1112 C22.3184,35.54 15.7768,43.9032 19.3336,47.4456 C20.9136,49.0528 24.884,47.744 22.7864,42.1928 Z" id="Path" fill="#FFFFFF"></path>
                            <path d="M38.7952,37.4376 C33.228,35.3416 31.9392,39.2976 33.5304,40.888 C37.0768,44.4384 45.448,37.8976 45.8792,36.6088 C45.8784,36.6136 43.72,39.3184 38.7952,37.4376 Z" id="Path" fill="#FFFFFF"></path>
                        </g>
                    </g>
                </g>
            </g>
        </g>
    </g>
</svg>