<?xml version="1.0" encoding="UTF-8"?>
<svg width="119px" height="130px" viewBox="0 0 119 130" version="1.1" xmlns="http://www.w3.org/2000/svg" xmlns:xlink="http://www.w3.org/1999/xlink">
    <!-- Generator: Sketch 52.1 (67048) - http://www.bohemiancoding.com/sketch -->
    <title>brain</title>
    <desc>Created with Sketch.</desc>
    <g id="Page-1" stroke="none" stroke-width="1" fill="none" fill-rule="evenodd">
        <g id="Catalog" transform="translate(-592.000000, -721.000000)" fill="#0A9740" fill-rule="nonzero">
            <g id="content" transform="translate(224.000000, 350.000000)">
                <g id="items">
                    <g id="item" transform="translate(298.000000, 334.000000)">
                        <g id="brain" transform="translate(70.000000, 37.000000)">
                            <path d="M115.288727,49.488 C113.6,46.8632727 112.657455,41.1730909 112.866909,37.7105455 C113.357818,29.6225455 109.059636,21.5912727 102.418182,18.1832727 C101.137455,17.5243636 99.9854545,17.1927273 98.9687273,16.9003636 C97.2210909,16.3963636 96.4989091,16.1869091 95.8378182,14.8145455 C92.3556364,7.57745455 88.5025455,6.56509091 81.1956364,7.03854545 C80.5105455,7.16727273 79.5985455,6.03490909 78.6581818,5.03127273 C77.0414545,3.30109091 74.8814545,0.990545455 71.456,0.597818182 L70.3541818,0.488727273 C65.8574545,0.488727273 61.8123636,2.11636364 59.4647273,4.51854545 C58.3018182,3.26181818 56.8247273,2.16218182 55.3432727,1.37672727 C52.4589091,-0.152727273 49.7578182,-0.416727273 47.8225455,0.643636364 C44.4232727,1.31563636 42.2458182,3.47127273 40.6356364,5.064 C39.3636364,6.32290909 38.5672727,7.12363636 37.8407273,7.03636364 C30.5294545,6.56727273 26.6829091,7.57963636 23.1985455,14.8123636 C22.5396364,16.1847273 21.8174545,16.3941818 20.0698182,16.8981818 C19.0552727,17.1905455 17.9032727,17.5221818 16.6203636,18.1810909 C9.97890909,21.5912727 5.68290909,29.6203636 6.17163636,37.7083636 C6.38109091,41.1730909 5.43854545,46.8610909 3.74981818,49.4858182 C-0.410909091,55.9614545 -0.410909091,65.0072727 3.74981818,71.4829091 C4.39345455,72.4821818 5.336,73.6450909 6.42690909,74.9934545 C8.37309091,77.3978182 11.6327273,81.4189091 11.5214545,83.2603636 C11.0261818,91.4116364 16.0007273,100.804364 22.6094545,104.197091 C23.7985455,104.808 23.9992727,105.425455 24.4487273,107.295273 C24.6974545,108.329455 25.0072727,109.614545 25.6749091,110.997818 C27.4705455,114.730909 30.2872727,115.802182 32.3425455,116.585455 C34.3847273,117.36 35.2290909,117.682909 35.5389091,119.921455 C36.5447273,127.208727 41.1309091,129.768 45.3352727,129.768 C45.5752727,129.768 45.8130909,129.759273 46.0509091,129.744 C51.2043636,129.388364 56.6043636,125.443636 59.5192727,119.352 C62.4341818,125.445818 67.832,129.390545 72.9876364,129.744 C73.2232727,129.759273 73.4632727,129.768 73.7032727,129.768 C77.9076364,129.768 82.4938182,127.206545 83.4996364,119.921455 C83.8094545,117.682909 84.6538182,117.36 86.696,116.585455 C88.7512727,115.802182 91.568,114.730909 93.3658182,110.997818 C94.0312727,109.614545 94.3410909,108.327273 94.5898182,107.295273 C95.0414545,105.427636 95.24,104.808 96.4290909,104.197091 C103.035636,100.804364 108.010182,91.4138182 107.517091,83.2603636 C107.405818,81.4189091 110.665455,77.3956364 112.611636,74.9934545 C113.702545,73.6450909 114.645091,72.4821818 115.288727,71.4829091 C119.449455,65.0094545 119.449455,55.9614545 115.288727,49.488 Z M45.7541818,125.393455 C42.5316364,125.559273 40.4349091,123.460364 39.8654545,119.328 C39.2021818,114.528 36.1367273,113.360727 33.8981818,112.509818 C32.0850909,111.820364 30.6516364,111.274909 29.6109091,109.108364 C29.1461818,108.146182 28.9170909,107.192727 28.6945455,106.272 C28.6923636,106.261091 28.688,106.250182 28.6858182,106.239273 C28.8538182,105.929455 28.976,105.591273 28.976,105.213818 C28.976,99.1985455 33.8698182,94.3047273 39.8850909,94.3047273 C41.0894545,94.3047273 42.0669091,93.3294545 42.0669091,92.1229091 C42.0669091,90.9163636 41.0894545,89.9410909 39.8850909,89.9410909 C33.0232727,89.9410909 27.2087273,94.4901818 25.2865455,100.728 C25.0683636,100.588364 24.8567273,100.446545 24.6036364,100.317818 C19.5701818,97.7345455 15.4945455,89.8887273 15.8785455,83.5287273 C16.0923636,79.9941818 12.7607273,75.8792727 9.81963636,72.2487273 C8.85090909,71.0530909 7.93672727,69.9250909 7.424,69.1243636 C4.15345455,64.0385455 4.15345455,56.9345455 7.424,51.8487273 C9.69963636,48.3098182 10.7905455,41.7469091 10.5287273,37.4443636 C10.1469091,31.1323636 13.5461818,24.6654545 18.6145455,22.0625455 C19.52,21.5978182 20.4167273,21.3403636 21.2807273,21.0894545 C22.1970909,20.8254545 23.1658182,20.5309091 24.0952727,20.0181818 C24.2654545,20.0596364 24.4290909,20.1229091 24.6101818,20.1229091 C29.4232727,20.1229091 33.3374545,24.0370909 33.3374545,28.8501818 C33.3374545,30.0567273 34.3149091,31.032 35.5192727,31.032 C36.7236364,31.032 37.7010909,30.0567273 37.7010909,28.8501818 C37.7010909,22.6101818 33.3090909,17.3825455 27.4552727,16.08 C29.408,12.264 31.0618182,11.2843636 34.8690909,11.2843636 C35.6632727,11.2843636 36.5534545,11.3258182 37.5592727,11.3912727 C40.2712727,11.5592727 42.0952727,9.75927273 43.7054545,8.16436364 C45.2349091,6.65236364 46.6770909,5.22109091 48.9309091,4.87854545 L49.6487273,4.74545455 L49.9890909,4.43127273 C50.408,4.25018182 51.5818182,4.31781818 53.2989091,5.22763636 C55.8036364,6.55636364 57.3396364,8.56145455 57.3396364,9.21163636 L57.3396364,26.8167273 C48.7432727,27.8967273 42.0669091,35.2363636 42.0669091,44.1207273 C42.0669091,51.3403636 36.1956364,57.2116364 28.976,57.2116364 C27.7716364,57.2116364 26.7941818,58.1869091 26.7941818,59.3934545 C26.7941818,60.6 27.7716364,61.5752727 28.976,61.5752727 C38.6,61.5752727 46.4305455,53.7447273 46.4305455,44.1207273 C46.4305455,37.6472727 51.1585455,32.2712727 57.3396364,31.2261818 L57.3396364,109.575273 C57.3396364,119.247273 50.4887273,125.066182 45.7541818,125.393455 Z M111.616727,69.1243636 C111.104,69.9229091 110.189818,71.0530909 109.221091,72.2487273 C108.339636,73.3374545 107.429818,74.472 106.583273,75.6196364 C104.244364,68.7338182 97.7316364,63.7592727 90.0647273,63.7592727 C82.8450909,63.7592727 76.9738182,57.888 76.9738182,50.6683636 C76.9738182,49.4618182 75.9963636,48.4865455 74.792,48.4865455 C73.5876364,48.4865455 72.6101818,49.4618182 72.6101818,50.6683636 C72.6101818,60.2923636 80.4407273,68.1229091 90.0647273,68.1229091 C97.2843636,68.1229091 103.155636,73.9941818 103.155636,81.2138182 C103.155636,81.4690909 103.221091,81.7069091 103.301818,81.936 C103.192727,82.4749091 103.129455,83.0094545 103.16,83.5287273 C103.544,89.8887273 99.4683636,97.7367273 94.4349091,100.317818 C94.184,100.446545 93.9723636,100.590545 93.752,100.728 C91.832,94.4901818 86.0152727,89.9410909 79.1534545,89.9410909 C77.9490909,89.9410909 76.9716364,90.9163636 76.9716364,92.1229091 C76.9716364,93.3294545 77.9490909,94.3047273 79.1534545,94.3047273 C85.1687273,94.3047273 90.0625455,99.1985455 90.0625455,105.213818 C90.0625455,105.591273 90.1847273,105.929455 90.3527273,106.239273 C90.3505455,106.250182 90.3461818,106.261091 90.344,106.272 C90.1214545,107.192727 89.8923636,108.144 89.4298182,109.108364 C88.3869091,111.272727 86.9556364,111.818182 85.1425455,112.509818 C82.904,113.360727 79.8363636,114.528 79.1752727,119.328 C78.6036364,123.462545 76.4850909,125.554909 73.2865455,125.393455 C68.552,125.068364 61.7010909,119.249455 61.7010909,109.577455 L61.7010909,9.21381818 C61.7010909,7.56872727 64.8821818,5.17963636 69.4050909,4.88290909 L70.4283636,4.90254545 C72.4203636,4.90254545 73.6618182,6.07636364 75.4705455,8.01163636 C77.0283636,9.67636364 78.8196364,11.5178182 81.4770909,11.3934545 C87.3330909,11.0225455 89.2443636,11.4829091 91.6247273,16.1716364 C86.9730909,17.4174545 83.5192727,21.6305455 83.5192727,26.6705455 C83.5192727,27.8770909 84.4967273,28.8523636 85.7010909,28.8523636 C86.9054545,28.8523636 87.8829091,27.8770909 87.8829091,26.6705455 C87.8829091,23.0618182 90.8196364,20.1250909 94.4283636,20.1250909 C94.6116364,20.1250909 94.7752727,20.064 94.9432727,20.0203636 C95.8727273,20.5330909 96.8414545,20.8276364 97.7578182,21.0916364 C98.6218182,21.3425455 99.5185455,21.6 100.424,22.0647273 C105.490182,24.6654545 108.891636,31.1345455 108.509818,37.4465455 C108.248,41.7490909 109.338909,48.3098182 111.614545,51.8509091 C114.887273,56.9345455 114.887273,64.0363636 111.616727,69.1243636 Z" id="Shape"></path>
                            <path d="M51.9658182,60.7832727 C51.1127273,59.9301818 49.7338182,59.9301818 48.8807273,60.7832727 C45.8938182,63.768 44.2487273,67.7389091 44.2487273,71.9563636 C44.2487273,75.4887273 45.416,78.8356364 47.5432727,81.5869091 C45.416,84.3381818 44.2487273,87.6872727 44.2487273,91.2174545 C44.2487273,95.4370909 45.8938182,99.4058182 48.8807273,102.390545 C49.3061818,102.816 49.8647273,103.029818 50.4232727,103.029818 C50.9818182,103.029818 51.5403636,102.816 51.9658182,102.390545 C52.8189091,101.537455 52.8189091,100.158545 51.9658182,99.3054545 C49.8036364,97.1432727 48.6123636,94.2698182 48.6123636,91.2174545 C48.6123636,88.1650909 49.8036364,85.2916364 51.9658182,83.1294545 C52.8189091,82.2763636 52.8189091,80.8974545 51.9658182,80.0443636 C49.8036364,77.8821818 48.6123636,75.0087273 48.6123636,71.9563636 C48.6123636,68.904 49.8036364,66.0305455 51.9658182,63.8683636 C52.8167273,63.0174545 52.8167273,61.6363636 51.9658182,60.7832727 Z" id="Shape"></path>
                            <path d="M70.0181818,68.0770909 C69.1650909,68.9301818 69.1650909,70.3090909 70.0181818,71.1621818 C74.072,75.2181818 74.072,81.8181818 70.0181818,85.8741818 C67.2276364,88.6647273 65.6894545,92.3738182 65.6894545,96.3141818 C65.6894545,100.254545 67.2276364,103.963636 70.0181818,106.754182 C70.4436364,107.179636 71.0021818,107.393455 71.5607273,107.393455 C72.1192727,107.393455 72.6778182,107.179636 73.1032727,106.754182 C73.9563636,105.901091 73.9563636,104.522182 73.1032727,103.669091 C71.1374545,101.703273 70.0530909,99.0894545 70.0530909,96.3141818 C70.0530909,93.5389091 71.1374545,90.9250909 73.1032727,88.9592727 C78.8589091,83.2014545 78.8589091,73.8327273 73.1032727,68.0770909 C72.2501818,67.224 70.8690909,67.224 70.0181818,68.0770909 Z" id="Shape"></path>
                            <path d="M98.3905455,47.328 C92.7549091,48.3163636 87.3374545,44.5309091 86.3447273,38.8821818 C85.6618182,34.9963636 83.5083636,31.608 80.2814545,29.3454545 C77.0545455,27.0829091 73.1338182,26.2123636 69.248,26.8930909 C68.0610909,27.1025455 67.2669091,28.2327273 67.4763636,29.4196364 C67.6858182,30.6065455 68.8138182,31.3876364 70.0029091,31.1934545 C72.7476364,30.7003636 75.5032727,31.3265455 77.7767273,32.9170909 C80.0501818,34.512 81.5665455,36.8989091 82.0487273,39.6370909 C83.3076364,46.7956364 89.5541818,51.8530909 96.5883636,51.8530909 C97.4327273,51.8530909 98.288,51.7789091 99.1476364,51.6283636 C100.334545,51.4189091 101.128727,50.2887273 100.919273,49.1018182 C100.709818,47.9149091 99.5861818,47.1229091 98.3905455,47.328 Z" id="Shape"></path>
                            <path d="M24.3287273,49.7367273 C27.9178182,49.7367273 31.2996364,47.5287273 32.6130909,43.9701818 C33.0298182,42.8378182 32.4538182,41.5832727 31.3236364,41.1665455 C30.1956364,40.752 28.9367273,41.328 28.52,42.4581818 C27.6669091,44.7665455 25.0967273,45.9490909 22.7949091,45.096 C18.2349091,43.4203636 13.1512727,45.7570909 11.4669091,50.3170909 C11.0501818,51.4494545 11.6283636,52.704 12.7585455,53.1207273 C13.0072727,53.2123636 13.2625455,53.256 13.5134545,53.256 C14.4014545,53.256 15.2349091,52.7105455 15.56,51.8312727 C16.4109091,49.5250909 18.9723636,48.336 21.2850909,49.1934545 C22.2887273,49.56 23.3163636,49.7367273 24.3287273,49.7367273 Z" id="Shape"></path>
                            <path d="M31.2778182,83.1272727 C28.9738182,82.2785455 27.7890909,79.7105455 28.6378182,77.4065455 C28.6378182,77.4065455 28.6378182,77.4043636 28.6378182,77.4043636 C30.3221818,72.8421818 27.9789091,67.7607273 23.4167273,66.0741818 C22.2909091,65.6618182 21.0298182,66.2356364 20.6130909,67.3658182 C20.1963636,68.4981818 20.7723636,69.7527273 21.9025455,70.1694545 C24.2087273,71.0203636 25.3934545,73.5883636 24.5425455,75.8923636 C24.5425455,75.8945455 24.5425455,75.8967273 24.5425455,75.8967273 C22.8625455,80.4545455 25.2036364,85.536 29.7636364,87.2225455 C30.0123636,87.3141818 30.2676364,87.3578182 30.5207273,87.3578182 C31.4087273,87.3578182 32.2421818,86.8123636 32.5672727,85.9330909 C32.9861818,84.8007273 32.408,83.5483636 31.2778182,83.1272727 Z" id="Shape"></path>
                        </g>
                    </g>
                </g>
            </g>
        </g>
    </g>
</svg>