<?xml version="1.0" encoding="UTF-8"?>
<svg width="20px" height="20px" viewBox="0 0 20 20" version="1.1" xmlns="http://www.w3.org/2000/svg" xmlns:xlink="http://www.w3.org/1999/xlink">
    <!-- Generator: Sketch 52.1 (67048) - http://www.bohemiancoding.com/sketch -->
    <title>instagram-social-network-logo-of-photo-camera</title>
    <desc>Created with Sketch.</desc>
    <g id="Page-1" stroke="none" stroke-width="1" fill="none" fill-rule="evenodd">
        <g id="Main" transform="translate(-442.000000, -3905.000000)" fill="#FFFFFF" fill-rule="nonzero">
            <g id="footer" transform="translate(0.000000, 3768.000000)">
                <g id="soc-icons" transform="translate(225.000000, 126.000000)">
                    <g id="instagram-logo" transform="translate(165.000000, 0.000000)">
                        <g id="Group-5" transform="translate(44.000000, 4.000000)">
                            <g id="instagram-social-network-logo-of-photo-camera" transform="translate(8.000000, 7.000000)">
                                <path d="M2.56709859,0 L17.4331068,0 C18.844898,0 20,1.04522819 20,2.56686688 L20,17.4331331 C20,18.9547718 18.844898,20 17.4331068,20 L2.56709859,20 C1.15489661,20 0,18.9547718 0,17.4331331 L0,2.56686688 C0,1.04522819 1.15489661,0 2.56709859,0 Z M14.8865291,2 C14.398665,2 14,2.40944718 14,2.91045938 L14,5.08954062 C14,5.59034519 14.398665,6 14.8865291,6 L17.1130663,6 C17.6009304,6 18,5.59034519 18,5.08954062 L18,2.91045938 C18,2.40944718 17.6009304,2 17.1130663,2 L14.8865291,2 Z M17.9995765,9 L16.1845804,9 C16.3562978,9.52944705 16.4492497,10.090285 16.4492497,10.6705174 C16.4492497,13.9095817 13.5789641,16.5352232 10.0389593,16.5352232 C6.49916629,16.5352232 3.62930418,13.9095817 3.62930418,10.6705174 C3.62930418,10.0898851 3.72204431,9.52924711 3.89397348,9 L2,9 L2,17.2258237 C2,17.6515007 2.36884313,18 2.81983961,18 L17.1801604,18 C17.6311569,18 18,17.6517006 18,17.2258237 L18,9 L17.9995765,9 Z M9.99979551,6 C7.79091049,6 6,7.79074553 6,10 C6,12.2092545 7.79091049,14 9.99979551,14 C12.208885,14 14,12.2092545 14,10 C14,7.79074553 12.2090895,6 9.99979551,6 Z" id="Shape"></path>
                            </g>
                        </g>
                    </g>
                </g>
            </g>
        </g>
    </g>
</svg>