<?xml version="1.0" encoding="UTF-8"?>
<svg width="127px" height="114px" viewBox="0 0 127 114" version="1.1" xmlns="http://www.w3.org/2000/svg" xmlns:xlink="http://www.w3.org/1999/xlink">
    <!-- Generator: Sketch 52.1 (67048) - http://www.bohemiancoding.com/sketch -->
    <title>liver</title>
    <desc>Created with Sketch.</desc>
    <g id="Page-1" stroke="none" stroke-width="1" fill="none" fill-rule="evenodd">
        <g id="Catalog" transform="translate(-886.000000, -390.000000)" fill="#0A9740" fill-rule="nonzero">
            <g id="content" transform="translate(224.000000, 350.000000)">
                <g id="items">
                    <g id="item" transform="translate(596.000000, 0.000000)">
                        <g id="liver" transform="translate(66.000000, 40.000000)">
                            <path d="M125.492638,2.09915787 C124.401513,0.765317972 122.789972,0 121.071286,0 L31.1857839,0 C24.1033128,0 13.9486366,4.69030586 7.2291448,15.1664156 C-0.815440398,27.7066972 -6.17703944,51.8382662 13.7868265,95.6297605 L13.7627737,96.2791875 C13.7234144,97.4359109 14.1760454,98.5620216 15.0025888,99.3645122 C15.7679067,100.112337 16.7999927,100.527796 17.864878,100.527796 C17.9435964,100.527796 18.0245014,100.523422 18.1032199,100.519049 C23.528231,100.206362 39.1910099,98.2558945 48.0665118,86.7673784 L48.0665118,111.517762 C48.0665118,112.726964 49.0439321,113.704384 50.2531345,113.704384 C51.4623369,113.704384 52.4397573,112.726964 52.4397573,111.517762 L52.4397573,78.7665256 C52.4419439,78.7621524 52.4419439,78.7599658 52.4441306,78.7555925 C52.4900496,78.7555925 52.540342,78.7555925 52.5884477,78.7555925 C53.154783,78.7555925 53.8435691,78.7446594 54.6263801,78.7184199 L54.6263801,111.519948 C54.6263801,112.729151 55.6038005,113.706571 56.8130029,113.706571 C58.0222053,113.706571 58.9996256,112.729151 58.9996256,111.519948 L58.9996256,78.416666 C71.9750452,77.1156255 96.0847479,70.9843352 100.755374,43.7805612 C114.907197,34.3955763 123.634008,21.9711857 126.673414,6.82226306 C127.010154,5.14731002 126.579389,3.42643789 125.492638,2.09915787 Z M72.1346687,71.2270503 C63.9894988,74.0696599 56.1154702,74.39984 52.7393246,74.3910935 C53.7014387,70.6060494 57.1081969,67.7853061 61.188435,67.7853061 C62.3976374,67.7853061 63.3750578,66.8078857 63.3750578,65.5986833 C63.3750578,64.3894809 62.3976374,63.4120605 61.188435,63.4120605 C55.6628393,63.4120605 50.9331742,66.8516181 49.0023863,71.6971742 C47.0715984,70.6235424 44.4738905,69.9719288 41.5088301,69.9719288 C40.2996277,69.9719288 39.3222073,70.9493492 39.3222073,72.1585516 C39.3222073,73.367754 40.2996277,74.3451744 41.5088301,74.3451744 C42.941068,74.3451744 44.134964,74.5397838 45.114571,74.810925 C37.8899694,76.1535114 32.762339,80.2709221 32.762339,85.2782883 C32.762339,86.4874907 33.7397593,87.4649111 34.9489617,87.4649111 C36.1581641,87.4649111 37.1355845,86.4874907 37.1355845,85.2782883 C37.1355845,82.5297034 41.3666996,79.5099774 47.705719,78.8539906 C41.4650976,93.3731658 24.0552071,95.754398 18.1425791,96.1348704 L18.3000159,91.4117652 C18.3503082,91.1253176 18.4093471,90.8323101 18.4727591,90.5349294 C18.5077451,90.3687461 18.5492909,90.1960029 18.5908367,90.0254463 C18.6214495,89.8986222 18.6498756,89.7717981 18.6804883,89.6406007 C18.7373405,89.4131919 18.8007525,89.1814099 18.8641646,88.9452547 C18.8838442,88.8774694 18.9013372,88.8074974 18.9210168,88.7375255 C19.0019218,88.4554512 19.0872001,88.1690036 19.1812249,87.8781828 C19.1855981,87.865063 19.1899714,87.8519433 19.1943446,87.8388235 C22.0741268,78.9195892 31.1267451,66.0884868 58.6169667,59.0060156 L58.61478,58.9994557 C58.7153647,58.9732163 58.8225092,58.9491634 58.9230939,58.922924 L58.9230939,58.9251106 C60.2153879,58.5971172 61.5514144,58.2822435 62.915867,57.9804895 L64.0354179,57.7377744 C65.5529341,57.4163409 67.1054363,57.1036538 68.7213505,56.8172062 C68.7235371,56.8172062 68.7257238,56.8172062 68.7279104,56.8172062 C69.4538691,56.6947553 81.2900582,54.6262102 94.2654778,47.6552568 C94.4185414,47.5743517 94.5694183,47.4912601 94.7224819,47.410355 C95.0220493,47.2463583 95.3172433,47.0954814 95.6189973,46.9271114 C92.4637006,58.7217547 84.5809255,66.8822309 72.1346687,71.2270503 Z M122.387633,5.96292031 C119.531904,20.1978346 111.189938,31.8656537 97.5869578,40.6449442 C96.0016563,41.6704702 94.3332631,42.6478906 92.6080177,43.5859518 C92.5161796,43.6362441 92.4243414,43.6909097 92.3325032,43.741202 C90.6028846,44.6727033 88.8054807,45.5560989 86.9446647,46.3957621 C84.9592112,47.2879042 83.0524762,48.0510355 81.2441392,48.7201421 C79.9343521,49.207759 78.6180052,49.6669497 77.2950984,50.0911546 C76.9474254,50.2026723 76.6216186,50.3010703 76.2870653,50.4038416 C74.9051197,50.8302331 73.5188009,51.2281984 72.1302954,51.5846179 C71.7476364,51.6830159 71.4087099,51.763921 71.0741566,51.844826 L69.9830319,52.0984743 C68.7628963,52.3718021 68.0281911,52.5029995 67.9975784,52.5073727 L67.9735255,52.511746 C66.2417203,52.8200598 64.5842602,53.1546131 62.9595995,53.5000995 L61.9843657,53.7122019 C61.9471932,53.7209484 61.9143938,53.7296949 61.8772212,53.7384414 C60.5696208,54.0292622 59.2926331,54.3288295 58.0550046,54.6437032 C57.9872193,54.6611962 57.9128741,54.6765025 57.8450888,54.6939955 C57.8429022,54.6939955 57.5258419,54.7727139 57.5258419,54.7727139 C57.4974158,54.7792738 57.4711763,54.7880203 57.4427502,54.7967668 C55.6825189,55.2515843 53.9966327,55.7326413 52.3741586,56.2333779 C52.2036021,56.2858569 52.0374187,56.3383358 51.8690488,56.3908148 C26.4561189,64.3544949 17.7227475,77.5310838 14.8582717,87.0603858 C14.8517118,87.0800654 14.8451519,87.099745 14.8385921,87.117238 C-0.852612985,49.3783155 3.8595591,28.5179342 10.9092309,17.5279682 C16.7059679,8.49065624 25.4852584,4.37324555 31.1857839,4.37324555 L69.8234084,4.37324555 C68.6994843,19.0258048 56.4434636,30.6127189 41.5088301,30.6127189 C40.2996277,30.6127189 39.3222073,31.5901392 39.3222073,32.7993416 C39.3222073,34.008544 40.2996277,34.9859644 41.5088301,34.9859644 C58.8574952,34.9859644 73.0639833,21.4398363 74.1966539,4.37324555 L121.0691,4.37324555 C121.471438,4.37324555 121.849724,4.55473524 122.109932,4.87179555 C122.260809,5.05328524 122.492591,5.43594422 122.387633,5.96292031 Z" id="Shape"></path>
                        </g>
                    </g>
                </g>
            </g>
        </g>
    </g>
</svg>