<?xml version="1.0" encoding="UTF-8"?>
<svg width="130px" height="33px" viewBox="0 0 130 33" version="1.1" xmlns="http://www.w3.org/2000/svg" xmlns:xlink="http://www.w3.org/1999/xlink">
    <!-- Generator: Sketch 52.1 (67048) - http://www.bohemiancoding.com/sketch -->
    <title>logo</title>
    <desc>Created with Sketch.</desc>
    <g id="Page-1" stroke="none" stroke-width="1" fill="none" fill-rule="evenodd">
        <g id="Literature" transform="translate(-288.000000, -360.000000)" fill="#0A9740" fill-rule="nonzero">
            <g id="content" transform="translate(224.000000, 340.000000)">
                <g id="items">
                    <g id="item">
                        <g id="logo" transform="translate(64.000000, 20.000000)">
                            <polygon id="Line-5" points="89.5408163 23.2142857 94.0925481 6.63265306 97.872516 6.63265306 102.142857 23.2142857 97.872516 23.2142857 94.5295804 10.8356054 91.2059711 23.2142857"></polygon>
                            <path d="M80.8982382,22.5163355 C74.3365808,24.2766103 69.7339807,22.6448292 68.5092351,18.3259756 C67.2844897,14.0071222 72.0755929,9.02778005 77.6660173,7.32268052 C83.2564417,5.61758096 89.3627092,7.16168408 90.6134116,10.97076 C92.0141268,15.2367075 87.4598955,20.7560608 80.8982382,22.5163355 Z M80.1087934,20.9860289 C84.2007762,20.9860289 87.6645874,17.8253134 87.6645874,14.342148 C87.6645874,10.4704113 83.7605649,8.27787648 79.4586058,8.44127554 C74.640593,8.62427555 71.4538108,11.9891021 71.7093359,15.6080763 C71.964861,19.2270504 75.8411569,20.9860289 80.1087934,20.9860289 Z" id="Combined-Shape"></path>
                            <path d="M49.6815766,6.63265306 L49.6815766,8.78382176 L45.9372195,8.78382176 L45.9372195,13.7017061 C47.3290006,13.7017061 48.5771197,13.7017061 49.6815766,13.7017061 C51.338262,13.7017061 53.7244898,14.7037278 53.7244898,18.5097873 C53.7244898,22.3158468 51.9396839,23.2142857 49.6815766,23.2142857 C48.1761718,23.2142857 45.3231293,23.2142857 41.122449,23.2142857 L41.122449,6.63265306 L49.6815766,6.63265306 Z M46.0706946,15.4030709 L46.0706946,21.8622565 C48.3666765,22.025609 49.5146674,20.917841 49.5146674,18.5389524 C49.5146674,16.1600637 48.3666765,15.1147699 46.0706946,15.4030709 Z" id="Combined-Shape"></path>
                            <polygon id="Line-4" points="55.0510204 6.63265306 55.0510204 23.2142857 58.7804872 23.2142857 64.8088395 12.9575293 64.8088395 23.2142857 66.3265306 23.2142857 66.3265306 6.63265306 63.4955897 6.63265306 56.7073761 17.8867885 56.7073761 6.63265306"></polygon>
                            <polygon id="Line-4" points="104.132653 6.63265306 104.132653 23.2142857 107.86212 23.2142857 113.890472 12.9575293 113.890472 23.2142857 115.408163 23.2142857 115.408163 6.63265306 112.577222 6.63265306 105.789009 17.8867885 105.789009 6.63265306"></polygon>
                            <polygon id="Line-6" points="117.397959 6.63265306 117.397959 8.48221981 121.3524 8.48221981 121.3524 23.2142857 126.158092 23.2142857 126.158092 8.48221981 130 8.48221981 130 6.63265306"></polygon>
                            <path d="M11.9692846,0 C12.375538,0 26.2175212,0 26.4579895,0 C26.6984579,0 27.1938776,0.132684466 27.1938776,0.994897959 C27.1938776,1.56970696 26.9485816,1.9013396 26.4579895,1.98979592 C17.0374303,1.98979592 12.207862,1.98979592 11.9692846,1.98979592 C11.6114185,1.98979592 11.2755102,1.70935628 11.2755102,0.994897959 C11.2755102,0.280439638 11.5630311,0 11.9692846,0 Z" id="Line-7"></path>
                            <path d="M24.6756262,7.15349757 C25.0837218,7.15354903 38.9884698,7.15530238 39.2300286,7.15533284 C39.4715873,7.1553633 39.9692711,7.29570674 39.9693861,8.20728257 C39.9694627,8.81499974 39.7230986,9.16558754 39.2302939,9.25904588 C29.7670182,9.25785259 24.9155507,9.25724083 24.6758915,9.25721061 C24.3164027,9.25716528 23.9789339,8.96062775 23.9788386,8.20526621 C23.9787434,7.44990467 24.2675307,7.15344611 24.6756262,7.15349757 Z" id="Line-7" transform="translate(31.974112, 8.206272) rotate(60.000000) translate(-31.974112, -8.206272) "></path>
                            <path d="M22.5720663,8.83683563 C22.9801619,8.83688709 36.8849099,8.83864044 37.1264687,8.8386709 C37.3680275,8.83870136 37.8657112,8.97904481 37.8658262,9.89062064 C37.8659028,10.4983378 37.6195388,10.8489256 37.126734,10.9423839 C27.6634583,10.9411907 22.8119908,10.9405789 22.5723317,10.9405487 C22.2128428,10.9405033 21.875374,10.6439658 21.8752787,9.88860427 C21.8751835,9.13324274 22.1639708,8.83678417 22.5720663,8.83683563 Z" id="Line-7" transform="translate(29.870552, 9.889610) rotate(60.000000) translate(-29.870552, -9.889610) "></path>
                            <path d="M11.9692846,27.1938776 C12.375538,27.1938776 26.2175212,27.1938776 26.4579895,27.1938776 C26.6984579,27.1938776 27.1938776,27.326562 27.1938776,28.1887755 C27.1938776,28.7635845 26.9485816,29.0952172 26.4579895,29.1836735 C17.0374303,29.1836735 12.207862,29.1836735 11.9692846,29.1836735 C11.6114185,29.1836735 11.2755102,28.9032338 11.2755102,28.1887755 C11.2755102,27.4743172 11.5630311,27.1938776 11.9692846,27.1938776 Z" id="Line-7"></path>
                            <path d="M24.6758869,22.3053754 C25.0839825,22.305324 38.9887305,22.3035706 39.2302893,22.3035401 C39.471848,22.3035097 39.9694964,22.4437276 39.9693815,23.3553035 C39.9693048,23.9630206 39.7228523,24.3136706 39.230024,24.4072532 C29.7667483,24.4084465 24.9152808,24.4090582 24.6756216,24.4090885 C24.3161327,24.4091338 23.9787387,24.1126814 23.978834,23.3573198 C23.9789293,22.6019583 24.2677914,22.3054269 24.6758869,22.3053754 Z" id="Line-7" transform="translate(31.974108, 23.356314) rotate(120.000000) translate(-31.974108, -23.356314) "></path>
                            <path d="M11.9692846,29.8469388 C12.375538,29.8469388 26.2175212,29.8469388 26.4579895,29.8469388 C26.6984579,29.8469388 27.1938776,29.9796233 27.1938776,30.8418367 C27.1938776,31.4166457 26.9485816,31.7482784 26.4579895,31.8367347 C17.0374303,31.8367347 12.207862,31.8367347 11.9692846,31.8367347 C11.6114185,31.8367347 11.2755102,31.5562951 11.2755102,30.8418367 C11.2755102,30.1273784 11.5630311,29.8469388 11.9692846,29.8469388 Z" id="Line-7" transform="translate(19.234694, 30.841837) rotate(180.000000) translate(-19.234694, -30.841837) "></path>
                            <path d="M-0.567096901,22.3035428 C-0.159001348,22.3035943 13.7457467,22.3053476 13.9873055,22.3053781 C14.2288643,22.3054085 14.726548,22.445752 14.726663,23.3573278 C14.7267397,23.965045 14.4803756,24.3156328 13.9875708,24.4090911 C4.52429508,24.4078978 -0.327172387,24.4072861 -0.56683159,24.4072559 C-0.926320394,24.4072105 -1.26378919,24.110673 -1.26388445,23.3553115 C-1.26397971,22.5999499 -0.975192452,22.3034914 -0.567096901,22.3035428 Z" id="Line-7" transform="translate(6.731389, 23.356317) rotate(-120.000000) translate(-6.731389, -23.356317) "></path>
                            <path d="M0,7.41860078 C3.97739964,5.30079186 9.62534208,1.97427239 20.880843,5.5744883 C26.6461664,7.41860078 33.156806,16.0769319 27.9321837,19.9884035 C26.4098958,18.7531948 26.8479527,19.0869545 26.4133982,18.7741031 C26.1165558,16.2017538 26.1165558,13.5038752 26.4133982,10.6804673 C25.9271623,13.5528187 25.7207062,16.0728643 25.79403,18.2406042 C24.9677231,17.5273299 24.1901453,16.9294536 23.4624416,16.3256732 C23.0786929,13.8090795 23.0786929,11.1194172 23.4624416,8.25668651 C22.9406888,10.548598 22.7211665,13.0513445 22.8038746,15.764926 C22.1687125,15.255102 20.9450966,14.4068667 20.1626022,13.7747253 C19.8934415,11.4455418 19.8337677,8.92993557 19.9835808,6.22790654 C19.6180396,8.84684192 19.4991859,11.2005774 19.6270198,13.2891131 C18.6753037,12.693937 17.9132504,12.2361463 16.8496965,11.557231 C16.5816359,9.64936112 16.4476056,7.56388138 16.4476056,5.30079186 C16.2886551,7.27138829 16.2886551,9.28038409 16.4476056,11.3277792 C12.9254599,9.16248825 8.26780602,7.69917673 2.47464384,6.93784464 C7.60142626,7.81707257 12.0233709,9.28038409 15.7404779,11.3277792 C13.7720061,11.6129415 11.5363044,12.289741 9.03337276,13.3581779 C12.6082325,12.289741 15.0001682,11.7555226 16.2091799,11.7555226 C17.1807985,12.4060431 18.0938209,12.9626087 19.2664177,13.7747253 C16.8238334,14.3661396 13.9353345,15.3834523 10.600921,16.8266632 C15.3828168,15.1632182 18.5103701,14.2941971 19.9835808,14.2196 C20.6399925,14.8334972 21.6580166,15.6646361 22.4236057,16.3256732 C19.596442,16.8972585 16.2580324,18.1900212 12.4083769,20.2039614 C16.9804041,18.2754979 20.506052,17.1497319 22.9853207,16.8266632 C23.652576,17.4451468 24.4486756,18.1264203 25.2593906,18.7741031 C22.4923945,19.642946 19.3718907,21.1360687 15.8978793,23.2534713 C19.8784221,21.2204647 23.177139,19.9363351 25.79403,19.4010825 C26.4133982,19.9884035 26.6828058,20.2039614 27.3132197,20.8082788 C26.1852099,32.7535303 12.0612451,22.8647117 10.8584747,19.2053538 C9.65570436,15.5459959 6.47171023,8.04800817 0,7.41860078 Z" id="Line-8"></path>
                            <polygon id="Line-9" points="28.5204082 21.2244898 34.9616137 27.8571429 35.1530612 25.9635797"></polygon>
                            <path d="M1.95399536,11.802686 C2.11139827,11.8026662 4.53239443,11.7835201 7.15280889,11.7831897 C7.05722033,12.365169 6.85317162,13.1761844 6.62540355,13.8685957 C3.73085515,13.8689607 2.08449875,13.8875418 1.95373243,13.8875583 C1.59655298,13.8876033 1.26132631,13.593806 1.26142072,12.8452095 C1.26151513,12.0966129 1.54852142,11.8027371 1.95399536,11.802686 Z" id="Line-7" transform="translate(4.207115, 12.835374) rotate(-60.000000) translate(-4.207115, -12.835374) "></path>
                            <path d="M4.47063204,13.4812255 C4.62627826,13.4812059 6.24439594,13.4669072 8.83556523,13.4665804 C8.65994923,14.0059113 8.21705757,15.0059497 7.91755936,15.5538254 C5.05531562,15.5541863 4.59967542,15.5708276 4.47036851,15.5708439 C4.11717537,15.5708884 3.78569049,15.2764217 3.78578512,14.5261211 C3.78587974,13.7758204 4.0696834,13.4812761 4.47063204,13.4812255 Z" id="Line-7" transform="translate(6.310675, 14.518712) rotate(-60.000000) translate(-6.310675, -14.518712) "></path>
                            <path d="M9.08411012,1.70851883 C9.2364109,1.70849963 9.26464352,1.69016241 10.0529938,1.68342916 C10.3892613,2.27604016 10.7747211,2.94998659 11.3594786,3.77552339 C8.55875552,3.77587655 9.21037557,3.78724843 9.08384795,3.78726438 C8.73824631,3.78730796 8.41388694,3.49437277 8.41398107,2.74797609 C8.4140752,2.00157942 8.69177941,1.7085683 9.08411012,1.70851883 Z" id="Line-7" transform="translate(9.886730, 2.735347) rotate(120.000000) translate(-9.886730, -2.735347) "></path>
                            <path d="M13.462878,4.1920292 C12.9470108,4.20878053 13.0631814,4.20806708 12.9274219,4.2080842 C12.5566041,4.20813096 12.2004967,3.95175486 12.2005783,3.30429122 C12.2006287,2.90539493 12.3218176,2.65805339 12.5071017,2.52517096 C12.8593017,3.14323431 12.985136,3.39511976 13.462878,4.1920292 Z" id="Line-7" transform="translate(12.831728, 3.366628) rotate(120.000000) translate(-12.831728, -3.366628) "></path>
                            <path d="M45.6041499,30.8190742 C45.5820048,30.9521475 45.4565159,31.0572054 45.3236453,31.0572054 C45.1981564,31.0572054 45.0874309,30.9521475 45.109576,30.8190742 L45.7444022,26.504698 L43.5741825,26.504698 L42.9393563,30.8190742 C42.9172112,30.9521475 42.799104,31.0572054 42.6588517,31.0572054 C42.5259811,31.0572054 42.430019,30.9521475 42.4521641,30.8190742 L43.1165171,26.2945822 C43.1386622,26.1685128 43.2641511,26.0564511 43.3970217,26.0564511 L46.0618152,26.0564511 C46.1873041,26.0564511 46.2906479,26.1685128 46.2685028,26.2945822 L45.6041499,30.8190742 Z M48.2160413,31.0361938 C47.9503001,31.0361938 47.632887,30.9801629 47.337619,30.8891128 L47.1309314,32.2828804 C47.116168,32.401946 47.0128242,32.5 46.8651902,32.5 C46.7027928,32.5 46.6363575,32.401946 46.6511209,32.2828804 L47.2342752,28.3817318 C47.2711837,28.1365968 47.2564203,27.9895158 47.1752216,27.8494386 C47.1604582,27.8214232 47.1456948,27.7864039 47.1456948,27.7513846 C47.1456948,27.6253152 47.2785654,27.5272612 47.3966726,27.5272612 C47.4926347,27.5272612 47.5812151,27.6113075 47.6476504,27.7233692 C48.0462622,27.534265 48.4522556,27.387184 48.8287223,27.387184 C49.5890374,27.387184 49.8916871,27.9194772 49.7735799,28.6969054 L49.6407093,29.6354223 C49.5152204,30.4618775 49.1387537,31.0361938 48.2160413,31.0361938 Z M47.7140857,28.3817318 L47.3966726,30.4898929 C47.6476504,30.6019546 47.9945903,30.6579855 48.2012779,30.6579855 C48.7918138,30.6579855 49.0501733,30.3428119 49.1608988,29.6354223 L49.2937694,28.6969054 C49.3823498,28.1015775 49.1830439,27.7794 48.6441798,27.7794 C48.3784386,27.7794 48.0388805,27.8914618 47.7214674,28.0595543 C47.7288491,28.1646122 47.7288491,28.2696701 47.7140857,28.3817318 Z M52.7028844,30.1537077 L53.079351,27.632319 C53.1014961,27.5062496 53.1900765,27.4081956 53.3524739,27.4081956 C53.5074896,27.4081956 53.5813066,27.5062496 53.5591615,27.632319 L53.1826948,30.1537077 C53.1310229,30.5039006 53.1605497,30.5599315 53.1974582,30.6089585 C53.2343667,30.6509816 53.2786569,30.7280241 53.2786569,30.7910588 C53.2786569,30.9031205 53.1605497,31.0011745 53.0276791,31.0011745 C52.9021902,31.0011745 52.8209916,30.9101243 52.7471746,30.7700472 C52.3633262,30.9661552 51.9573327,31.0431976 51.6103928,31.0431976 C50.842696,31.0431976 50.5326647,30.5179083 50.6507719,29.7404801 L50.9608032,27.632319 C50.9829483,27.5062496 51.0789104,27.4081956 51.2339261,27.4081956 C51.3889418,27.4081956 51.4553771,27.5062496 51.4406137,27.632319 L51.1305823,29.7404801 C51.0420019,30.3147965 51.2560712,30.6509816 51.7506451,30.6509816 C52.0606765,30.6509816 52.3854713,30.5529276 52.688121,30.384835 C52.688121,30.3147965 52.688121,30.2447579 52.7028844,30.1537077 Z M55.7355326,31.0361938 C55.4697914,31.0361938 55.1523784,30.9801629 54.8571104,30.8891128 L54.6504228,32.2828804 C54.6356594,32.401946 54.5323156,32.5 54.3846816,32.5 C54.2222842,32.5 54.1558489,32.401946 54.1706123,32.2828804 L54.7537666,28.3817318 C54.7906751,28.1365968 54.7759117,27.9895158 54.694713,27.8494386 C54.6799496,27.8214232 54.6651862,27.7864039 54.6651862,27.7513846 C54.6651862,27.6253152 54.7980568,27.5272612 54.916164,27.5272612 C55.0121261,27.5272612 55.1007065,27.6113075 55.1671418,27.7233692 C55.5657535,27.534265 55.971747,27.387184 56.3482137,27.387184 C57.1085288,27.387184 57.4111785,27.9194772 57.2930713,28.6969054 L57.1602007,29.6354223 C57.0347118,30.4618775 56.6582451,31.0361938 55.7355326,31.0361938 Z M55.2335771,28.3817318 L54.916164,30.4898929 C55.1671418,30.6019546 55.5140816,30.6579855 55.7207692,30.6579855 C56.3113052,30.6579855 56.5696647,30.3428119 56.6803902,29.6354223 L56.8132608,28.6969054 C56.9018412,28.1015775 56.7025353,27.7794 56.1636712,27.7794 C55.89793,27.7794 55.5583718,27.8914618 55.2409588,28.0595543 C55.2483405,28.1646122 55.2483405,28.2696701 55.2335771,28.3817318 Z M59.1225025,31.0431976 C58.2366985,31.0431976 57.8380867,30.5109045 57.9414305,29.8175226 L58.1185913,28.6128591 C58.2219351,27.9194772 58.7829443,27.3801802 59.6687483,27.3801802 C60.5619339,27.3801802 60.953164,27.9194772 60.8498202,28.6128591 L60.6726594,29.8175226 C60.5693156,30.5109045 60.0156881,31.0431976 59.1225025,31.0431976 Z M59.1889378,30.62997 C59.7794738,30.62997 60.1190319,30.3218003 60.1928489,29.8175226 L60.3700097,28.6058552 C60.4438267,28.1015775 60.2002306,27.7864039 59.6096947,27.7864039 C59.0265404,27.7864039 58.6722188,28.1015775 58.5984018,28.6058552 L58.421241,29.8175226 C58.347424,30.3218003 58.6057835,30.62997 59.1889378,30.62997 Z M62.9671377,26.1685128 C62.9966645,26.0354395 63.0704815,25.9794087 63.3657495,25.9794087 C64.6649286,25.9794087 64.8347077,27.0229834 64.7756541,27.9054695 C64.6132567,30.3288042 63.9858123,31.0502015 62.7825952,31.0572054 C61.9410815,31.0642092 61.4907978,30.482889 61.4907978,29.6354223 C61.4907978,28.6408745 62.1182423,27.6603345 63.1221534,27.6603345 C63.4174214,27.6603345 63.9046136,27.7443808 64.2736986,28.0595543 C64.3401339,27.6043036 64.3253705,27.2751223 64.2294084,27.0159796 C64.0227208,26.455671 63.5060018,26.3926363 63.1147717,26.3506131 C62.9966645,26.3366054 62.9376109,26.3155938 62.9671377,26.1685128 Z M64.1777365,29.012079 L64.2220267,28.5148051 C64.0005757,28.2486585 63.4838567,28.0735621 63.1295351,28.0735621 C62.443037,28.0735621 61.97799,28.7249208 61.97799,29.5863953 C61.97799,30.1957309 62.2142044,30.62997 62.9154658,30.62997 C63.6683992,30.62997 64.0153391,30.1326962 64.1777365,29.012079 Z M65.8373886,30.8190742 C65.8152435,30.9451436 65.6971363,31.0431976 65.5642657,31.0431976 C65.4313951,31.0431976 65.335433,30.9451436 65.3575781,30.8190742 L65.8226252,27.6393229 C65.8447703,27.5132535 65.9702592,27.4081956 66.1031298,27.4081956 C66.2360004,27.4081956 66.3245808,27.5132535 66.3024357,27.6393229 L66.1105115,28.9700558 L67.8378292,28.9700558 L68.0297534,27.6393229 C68.0518985,27.5132535 68.1773874,27.4081956 68.310258,27.4081956 C68.4431286,27.4081956 68.531709,27.5132535 68.5095639,27.6393229 L68.0445168,30.8190742 C68.0223717,30.9451436 67.9042645,31.0431976 67.7713939,31.0431976 C67.6385233,31.0431976 67.5425612,30.9451436 67.5647063,30.8190742 L67.7787756,29.3412603 L66.0514579,29.3412603 L65.8373886,30.8190742 Z M70.1839794,31.0431976 C69.4162826,31.0431976 69.0988696,30.5109045 69.2169768,29.7404801 L69.3572291,28.8229748 C69.4827179,27.9895158 69.8960931,27.387184 70.8852409,27.387184 C71.7931899,27.387184 72.0736945,27.877454 71.9408239,28.7949594 L71.7119912,30.3778312 C71.6824644,30.5599315 71.7341363,30.6509816 71.8670069,30.6509816 C71.8965337,30.6509816 71.9112971,30.6439778 71.9260605,30.6439778 C72.0220226,30.6439778 72.0663128,30.7210202 72.0663128,30.8050665 C72.0663128,30.9661552 71.8965337,31.0221861 71.7562814,31.0221861 C71.5274487,31.0221861 71.350288,30.8681012 71.2543259,30.6229662 C70.9221494,30.9031205 70.5530644,31.0431976 70.1839794,31.0431976 Z M70.3611402,30.6509816 C70.6711716,30.6509816 70.9369128,30.5389199 71.2395625,30.3077926 L71.4905402,28.6058552 C71.5717389,28.0385428 71.3576697,27.7723962 70.8261873,27.7723962 C70.2282696,27.7723962 69.947765,28.1085813 69.8370395,28.8229748 L69.6967872,29.7404801 C69.6082068,30.335808 69.8222761,30.6509816 70.3611402,30.6509816 Z M75.150633,31.0431976 C75.0103807,31.0431976 74.9218003,30.9451436 74.9439454,30.8190742 L75.1358696,29.502349 L74.3903179,29.502349 C74.0138512,29.9575997 73.578331,30.4898929 73.1797192,30.9381398 C73.1206656,31.0011745 73.0394669,31.0431976 72.9656499,31.0431976 C72.8475427,31.0431976 72.766344,30.9801629 72.766344,30.8751051 C72.766344,30.8470896 72.7958708,30.7560395 72.8253976,30.7280241 L73.8957441,29.4813374 C73.3642617,29.3692757 73.135429,29.0681098 73.135429,28.6268668 C73.135429,27.9404888 73.6152395,27.4502187 74.5158068,27.4502187 L75.6894971,27.4502187 C75.814986,27.4502187 75.9035664,27.5552766 75.888803,27.681346 L75.4237559,30.8190742 C75.4016108,30.9451436 75.2761219,31.0431976 75.150633,31.0431976 Z M73.6078578,28.5918475 C73.6078578,28.864998 73.7554918,29.1311445 74.3681728,29.1311445 L75.1949232,29.1311445 L75.3868474,27.828427 L74.4715166,27.828427 C73.9178892,27.828427 73.6078578,28.0805659 73.6078578,28.5918475 Z M79.901987,31.0431976 C79.1342902,31.0431976 78.8168772,30.5109045 78.9349843,29.7404801 L79.0752366,28.8229748 C79.2007255,27.9895158 79.6141007,27.387184 80.6032485,27.387184 C81.5111975,27.387184 81.7917021,27.877454 81.6588315,28.7949594 L81.4299988,30.3778312 C81.400472,30.5599315 81.4521439,30.6509816 81.5850145,30.6509816 C81.6145413,30.6509816 81.6293047,30.6439778 81.6440681,30.6439778 C81.7400302,30.6439778 81.7843204,30.7210202 81.7843204,30.8050665 C81.7843204,30.9661552 81.6145413,31.0221861 81.474289,31.0221861 C81.2454563,31.0221861 81.0682955,30.8681012 80.9723334,30.6229662 C80.640157,30.9031205 80.271072,31.0431976 79.901987,31.0431976 Z M80.0791478,30.6509816 C80.3891792,30.6509816 80.6549204,30.5389199 80.95757,30.3077926 L81.2085478,28.6058552 C81.2897465,28.0385428 81.0756772,27.7723962 80.5441949,27.7723962 C79.9462772,27.7723962 79.6657726,28.1085813 79.5550471,28.8229748 L79.4147948,29.7404801 C79.3262144,30.335808 79.5402837,30.6509816 80.0791478,30.6509816 Z M83.1413229,30.8190742 C83.1191778,30.9451436 83.0010706,31.0431976 82.8755817,31.0431976 C82.7353294,31.0431976 82.646749,30.9451436 82.6688941,30.8190742 L83.1265595,27.681346 C83.1487046,27.5552766 83.2668118,27.4502187 83.407064,27.4502187 L85.5329935,27.4502187 C85.6658641,27.4502187 85.7544445,27.5552766 85.7322994,27.681346 L85.2746341,30.8190742 C85.252489,30.9451436 85.1343818,31.0431976 85.0015112,31.0431976 C84.8686406,31.0431976 84.7726785,30.9451436 84.7948236,30.8190742 L85.2377256,27.8214232 L83.5842248,27.8214232 L83.1413229,30.8190742 Z M87.3033712,27.730373 C87.6872196,27.5132535 88.0858313,27.387184 88.4770614,27.387184 C88.8682915,27.387184 89.126651,27.5272612 89.2964301,27.7794 C89.6655151,27.534265 90.0567452,27.387184 90.4627386,27.387184 C91.2451988,27.387184 91.5995204,27.8634463 91.4961766,28.5638321 L91.2304354,30.3638235 C91.2009086,30.5249122 91.2230537,30.6369739 91.2968707,30.7420318 C91.3042524,30.7560395 91.3116341,30.7980626 91.3116341,30.8260781 C91.3116341,30.9451436 91.2082903,31.0431976 91.068038,31.0431976 C90.9056406,31.0431976 90.6620445,30.9661552 90.7506249,30.3638235 L91.0163661,28.5778398 C91.0754197,28.1436006 90.8908772,27.7934078 90.3815399,27.7934078 C90.0346001,27.7934078 89.6655151,27.975508 89.4293007,28.2136392 C89.4366824,28.3186971 89.4293007,28.4307588 89.4145373,28.5638321 L89.0823608,30.8190742 C89.0602157,30.9451436 88.9716353,31.0361938 88.8092379,31.0361938 C88.6468405,31.0361938 88.5804052,30.9451436 88.6025503,30.8190742 L88.9125817,28.7249208 C88.9937804,28.1786199 88.9494902,27.7934078 88.3589542,27.7934078 C88.019396,27.7934078 87.6355477,27.9474926 87.3771882,28.1155852 C87.3771882,28.1996315 87.3771882,28.2766739 87.3624248,28.3677241 L87.0007215,30.8190742 C86.9785764,30.9451436 86.8826143,31.0361938 86.7275986,31.0361938 C86.5652012,31.0361938 86.4987659,30.9451436 86.520911,30.8190742 L86.8826143,28.3677241 C86.9195228,28.1225891 86.9047594,27.975508 86.8235607,27.8354309 C86.8087973,27.8074155 86.8014156,27.7723962 86.8014156,27.7373769 C86.8014156,27.6113075 86.9269045,27.5132535 87.0450117,27.5132535 C87.1409738,27.5132535 87.2443176,27.5762882 87.3033712,27.730373 Z M93.5470588,30.6579855 C93.886617,30.6579855 94.108068,30.5669353 94.3885726,30.4548736 C94.403336,30.4478697 94.4402445,30.433862 94.4697713,30.433862 C94.5804968,30.433862 94.6543137,30.5179083 94.6543137,30.6089585 C94.6543137,30.9381398 93.8201817,31.0431976 93.4141882,31.0431976 C92.5874378,31.0431976 92.1888261,30.5459238 92.2847882,29.9015689 L92.4840941,28.5568282 C92.5800561,27.8914618 93.1263019,27.387184 93.9973425,27.387184 C94.7133673,27.387184 95.0455438,27.7513846 95.0455438,28.3186971 C95.0455438,29.0470982 94.646932,29.5233606 93.6577843,29.5233606 C93.4141882,29.5233606 93.1115385,29.502349 92.8310339,29.4463181 L92.7572169,29.943592 C92.6981633,30.3708273 92.9565228,30.6579855 93.5470588,30.6579855 Z M94.5731151,28.3677241 C94.5731151,27.9615003 94.3369007,27.7864039 93.9161438,27.7864039 C93.3846614,27.7864039 93.0377215,28.0665582 92.9712862,28.5007974 L92.8827058,29.0961253 C93.1927372,29.1381484 93.5839673,29.1521561 93.738983,29.1521561 C94.3590458,29.1521561 94.5731151,28.8369825 94.5731151,28.3677241 Z M96.1589502,30.8190742 C96.1368051,30.9451436 96.0113162,31.0431976 95.8858273,31.0431976 C95.745575,31.0431976 95.6569946,30.9451436 95.6791397,30.8190742 L96.1441868,27.6393229 C96.1663319,27.5132535 96.2844391,27.4081956 96.4246914,27.4081956 C96.5501803,27.4081956 96.6461424,27.5132535 96.6239973,27.6393229 L96.4320731,28.9700558 L96.9857006,28.9700558 L98.203681,27.5272612 C98.2701163,27.4502187 98.3365516,27.4151994 98.4177503,27.4151994 C98.5284758,27.4151994 98.6096745,27.4782342 98.6096745,27.5762882 C98.6096745,27.632319 98.5875294,27.6953537 98.5506209,27.7373769 L97.2662051,29.2362024 L98.1077189,30.7280241 C98.1224823,30.7490356 98.1372457,30.8120703 98.1372457,30.8470896 C98.1372457,30.9661552 98.0117568,31.0431976 97.8788862,31.0431976 C97.7903058,31.0431976 97.7312522,31.0081784 97.6943437,30.9381398 L96.8233032,29.3412603 L96.3730195,29.3412603 L96.1589502,30.8190742 Z M99.9002416,31.0431976 C99.1325449,31.0431976 98.8151318,30.5109045 98.933239,29.7404801 L99.0734913,28.8229748 C99.1989802,27.9895158 99.6123553,27.387184 100.601503,27.387184 C101.509452,27.387184 101.789957,27.877454 101.657086,28.7949594 L101.428253,30.3778312 C101.398727,30.5599315 101.450399,30.6509816 101.583269,30.6509816 C101.612796,30.6509816 101.627559,30.6439778 101.642323,30.6439778 C101.738285,30.6439778 101.782575,30.7210202 101.782575,30.8050665 C101.782575,30.9661552 101.612796,31.0221861 101.472544,31.0221861 C101.243711,31.0221861 101.06655,30.8681012 100.970588,30.6229662 C100.638412,30.9031205 100.269327,31.0431976 99.9002416,31.0431976 Z M100.077402,30.6509816 C100.387434,30.6509816 100.653175,30.5389199 100.955825,30.3077926 L101.206802,28.6058552 C101.288001,28.0385428 101.073932,27.7723962 100.54245,27.7723962 C99.9445318,27.7723962 99.6640272,28.1085813 99.5533017,28.8229748 L99.4130495,29.7404801 C99.3244691,30.335808 99.5385383,30.6509816 100.077402,30.6509816 Z M105.005917,29.2852294 L105.23475,27.7513846 C105.397147,26.6797944 106.024592,25.9794087 107.14661,25.9794087 C107.774055,25.9794087 108.342445,26.2245437 108.342445,26.5117018 C108.342445,26.6377713 108.239102,26.7358253 108.098849,26.7358253 C108.032414,26.7358253 107.995506,26.7078098 107.943834,26.6727906 C107.92907,26.6587828 107.899543,26.6447751 107.877398,26.6307674 C107.655947,26.4766825 107.412351,26.3926363 107.117083,26.3926363 C106.223898,26.3926363 105.854813,26.9179256 105.729324,27.7513846 L105.500491,29.2852294 C105.382384,30.1116846 105.596453,30.6369739 106.489639,30.6369739 C106.784907,30.6369739 107.050648,30.5669353 107.301626,30.4128505 L107.390206,30.3638235 C107.471405,30.3147965 107.515695,30.2937849 107.567367,30.2937849 C107.685474,30.2937849 107.751909,30.3708273 107.751909,30.4688813 C107.751909,30.7840549 107.072793,31.0502015 106.393677,31.0502015 C105.271658,31.0502015 104.850902,30.3498157 105.005917,29.2852294 Z M110.88052,30.1537077 L111.256987,27.632319 C111.279132,27.5062496 111.367712,27.4081956 111.530109,27.4081956 C111.685125,27.4081956 111.758942,27.5062496 111.736797,27.632319 L111.36033,30.1537077 C111.308658,30.5039006 111.338185,30.5599315 111.375094,30.6089585 C111.412002,30.6509816 111.456292,30.7280241 111.456292,30.7910588 C111.456292,30.9031205 111.338185,31.0011745 111.205315,31.0011745 C111.079826,31.0011745 110.998627,30.9101243 110.92481,30.7700472 C110.540962,30.9661552 110.134968,31.0431976 109.788028,31.0431976 C109.020332,31.0431976 108.7103,30.5179083 108.828407,29.7404801 L109.138439,27.632319 C109.160584,27.5062496 109.256546,27.4081956 109.411562,27.4081956 C109.566577,27.4081956 109.633013,27.5062496 109.618249,27.632319 L109.308218,29.7404801 C109.219637,30.3147965 109.433707,30.6509816 109.928281,30.6509816 C110.238312,30.6509816 110.563107,30.5529276 110.865756,30.384835 C110.865756,30.3147965 110.865756,30.2447579 110.88052,30.1537077 Z M112.798531,27.6043036 C112.931402,26.7148137 113.440739,26.1895244 114.481559,26.0914704 C114.533231,26.0844665 114.592285,26.0774627 114.621811,26.0774627 C114.79159,26.0704588 114.880171,26.0704588 115.315691,25.8883585 C115.330454,25.8813547 115.374745,25.8673469 115.404271,25.8673469 C115.507615,25.8673469 115.581432,25.9513932 115.581432,26.0494472 C115.581432,26.406644 114.798972,26.4626748 114.415124,26.4906903 C114.060802,26.5187057 113.425976,26.5887443 113.285724,27.5622805 L113.204525,28.1015775 C113.521938,27.7794 113.87626,27.5902959 114.282253,27.5902959 C115.064713,27.5902959 115.448562,28.1295929 115.3526,28.8229748 L115.204966,29.8175226 C115.101622,30.5109045 114.547994,31.0431976 113.654809,31.0431976 C112.769005,31.0431976 112.370393,30.5109045 112.473737,29.8175226 L112.798531,27.6043036 Z M113.713862,30.62997 C114.304398,30.62997 114.643956,30.3218003 114.725155,29.8175226 L114.872789,28.815971 C114.946606,28.3116932 114.732537,27.9965196 114.149383,27.9965196 C113.57361,27.9965196 113.189762,28.2976855 113.101181,28.7809517 L112.953547,29.8175226 C112.872348,30.3218003 113.130708,30.62997 113.713862,30.62997 Z M118.304049,30.1537077 L118.680516,27.632319 C118.702661,27.5062496 118.791241,27.4081956 118.953639,27.4081956 C119.108654,27.4081956 119.182471,27.5062496 119.160326,27.632319 L118.78386,30.1537077 C118.732188,30.5039006 118.761715,30.5599315 118.798623,30.6089585 C118.835532,30.6509816 118.879822,30.7280241 118.879822,30.7910588 C118.879822,30.9031205 118.761715,31.0011745 118.628844,31.0011745 C118.503355,31.0011745 118.422156,30.9101243 118.348339,30.7700472 C117.964491,30.9661552 117.558497,31.0431976 117.211558,31.0431976 C116.443861,31.0431976 116.133829,30.5179083 116.251937,29.7404801 L116.561968,27.632319 C116.584113,27.5062496 116.680075,27.4081956 116.835091,27.4081956 C116.990107,27.4081956 117.056542,27.5062496 117.041779,27.632319 L116.731747,29.7404801 C116.643167,30.3147965 116.857236,30.6509816 117.35181,30.6509816 C117.661841,30.6509816 117.986636,30.5529276 118.289286,30.384835 C118.289286,30.3147965 118.289286,30.2447579 118.304049,30.1537077 Z M121.336697,31.0361938 C121.070956,31.0361938 120.753543,30.9801629 120.458275,30.8891128 L120.251588,32.2828804 C120.236824,32.401946 120.13348,32.5 119.985846,32.5 C119.823449,32.5 119.757014,32.401946 119.771777,32.2828804 L120.354931,28.3817318 C120.39184,28.1365968 120.377076,27.9895158 120.295878,27.8494386 C120.281114,27.8214232 120.266351,27.7864039 120.266351,27.7513846 C120.266351,27.6253152 120.399222,27.5272612 120.517329,27.5272612 C120.613291,27.5272612 120.701871,27.6113075 120.768307,27.7233692 C121.166918,27.534265 121.572912,27.387184 121.949378,27.387184 C122.709694,27.387184 123.012343,27.9194772 122.894236,28.6969054 L122.761365,29.6354223 C122.635877,30.4618775 122.25941,31.0361938 121.336697,31.0361938 Z M120.834742,28.3817318 L120.517329,30.4898929 C120.768307,30.6019546 121.115246,30.6579855 121.321934,30.6579855 C121.91247,30.6579855 122.170829,30.3428119 122.281555,29.6354223 L122.414426,28.6969054 C122.503006,28.1015775 122.3037,27.7794 121.764836,27.7794 C121.499095,27.7794 121.159537,27.8914618 120.842124,28.0595543 C120.849505,28.1646122 120.849505,28.2696701 120.834742,28.3817318 Z M125.823541,30.1537077 L126.200007,27.632319 C126.222152,27.5062496 126.310733,27.4081956 126.47313,27.4081956 C126.628146,27.4081956 126.701963,27.5062496 126.679818,27.632319 L126.303351,30.1537077 C126.251679,30.5039006 126.281206,30.5599315 126.318114,30.6089585 C126.355023,30.6509816 126.399313,30.7280241 126.399313,30.7910588 C126.399313,30.9031205 126.281206,31.0011745 126.148335,31.0011745 C126.022846,31.0011745 125.941648,30.9101243 125.867831,30.7700472 C125.483982,30.9661552 125.077989,31.0431976 124.731049,31.0431976 C123.963352,31.0431976 123.653321,30.5179083 123.771428,29.7404801 L124.081459,27.632319 C124.103604,27.5062496 124.199567,27.4081956 124.354582,27.4081956 C124.509598,27.4081956 124.576033,27.5062496 124.56127,27.632319 L124.251238,29.7404801 C124.162658,30.3147965 124.376727,30.6509816 124.871301,30.6509816 C125.181333,30.6509816 125.506127,30.5529276 125.808777,30.384835 C125.808777,30.3147965 125.808777,30.2447579 125.823541,30.1537077 Z" id="Природная-аптека-Сиб"></path>
                        </g>
                    </g>
                </g>
            </g>
        </g>
    </g>
</svg>