<?xml version="1.0" encoding="UTF-8"?>
<svg width="196px" height="49px" viewBox="0 0 196 49" version="1.1" xmlns="http://www.w3.org/2000/svg" xmlns:xlink="http://www.w3.org/1999/xlink">
    <!-- Generator: Sketch 52.1 (67048) - http://www.bohemiancoding.com/sketch -->
    <title>logo</title>
    <desc>Created with Sketch.</desc>
    <g id="Page-1" stroke="none" stroke-width="1" fill="none" fill-rule="evenodd">
        <g id="Main" transform="translate(-225.000000, -3813.000000)" fill="#0A9740" fill-rule="nonzero">
            <g id="footer" transform="translate(0.000000, 3768.000000)">
                <g id="logo" transform="translate(225.000000, 45.000000)">
                    <polygon id="Line-5" points="135 35 141.862611 10 147.56164 10 154 35 147.56164 35 142.521521 16.3367589 137.510541 35"></polygon>
                    <path d="M121.969651,33.9477059 C112.076691,36.6016585 105.137386,34.1414348 103.290847,27.6299325 C101.444308,21.1184304 108.667817,13.6111145 117.096457,11.0403491 C125.525097,8.4695836 134.731469,10.797616 136.617144,16.5405305 C138.728991,22.9722666 131.862612,31.2937532 121.969651,33.9477059 Z M120.779412,31.6404744 C126.948863,31.6404744 132.171224,26.8750879 132.171224,21.6235462 C132.171224,15.7861586 126.285159,12.4804907 119.799129,12.7268462 C112.535048,13.0027539 107.730361,18.0758771 108.115614,23.5321765 C108.500867,28.988476 114.345129,31.6404744 120.779412,31.6404744 Z" id="Combined-Shape"></path>
                    <path d="M74.9045309,10 L74.9045309,13.2433005 L69.2591924,13.2433005 L69.2591924,20.6579569 C71.3575702,20.6579569 73.2393497,20.6579569 74.9045309,20.6579569 C77.4023028,20.6579569 81,22.1686973 81,27.907064 C81,33.6454306 78.3090618,35 74.9045309,35 C72.6348436,35 68.3333334,35 62,35 L62,10 L74.9045309,10 Z M69.4604319,23.2230915 L69.4604319,32.961556 C72.9220661,33.2078413 74.6528831,31.537668 74.6528831,27.9510359 C74.6528831,24.3644038 72.9220661,22.7884223 69.4604319,23.2230915 Z" id="Combined-Shape"></path>
                    <polygon id="Line-4" points="83 10 83 35 88.6228884 35 97.7117888 19.5359673 97.7117888 35 100 35 100 10 95.7318122 10 85.4972747 26.9677734 85.4972747 10"></polygon>
                    <polygon id="Line-4" points="157 10 157 35 162.622888 35 171.711789 19.5359673 171.711789 35 174 35 174 10 169.731812 10 159.497274 26.9677734 159.497274 10"></polygon>
                    <polygon id="Line-6" points="177 10 177 12.7885776 182.96208 12.7885776 182.96208 35 190.207585 35 190.207585 12.7885776 196 12.7885776 196 10"></polygon>
                    <path d="M18.0459982,0 C18.6585034,0 39.527955,0 39.8905073,0 C40.2530597,0 41,0.200047349 41,1.5 C41,2.3666351 40.6301692,2.8666351 39.8905073,3 C25.6872026,3 18.4056996,3 18.0459982,3 C17.5064463,3 17,2.57718331 17,1.5 C17,0.422816685 17.4334931,0 18.0459982,0 Z" id="Line-7"></path>
                    <path d="M37.2032518,10.7852733 C37.8185344,10.7853508 58.782616,10.7879944 59.1468123,10.7880403 C59.5110086,10.7880862 60.2613626,10.9996809 60.2615359,12.3740568 C60.2616515,13.2903073 59.8902103,13.8188858 59.1472123,13.9597923 C44.8795043,13.9579931 37.5649841,13.9570708 37.2036518,13.9570252 C36.6616532,13.9569569 36.1528542,13.5098695 36.1527105,12.3710167 C36.1525669,11.232164 36.5879693,10.7851957 37.2032518,10.7852733 Z" id="Line-7" transform="translate(48.207123, 12.372533) rotate(60.000000) translate(-48.207123, -12.372533) "></path>
                    <path d="M34.0317308,13.3232291 C34.6470133,13.3233067 55.611095,13.3259502 55.9752913,13.3259961 C56.3394875,13.326042 57.0898416,13.5376368 57.0900149,14.9120127 C57.0901304,15.8282632 56.7186892,16.3568417 55.9756913,16.4977481 C41.7079833,16.495949 34.3934631,16.4950266 34.0321308,16.4949811 C33.4901322,16.4949127 32.9813331,16.0478254 32.9811895,14.9089726 C32.9810459,13.7701198 33.4164483,13.3231515 34.0317308,13.3232291 Z" id="Line-7" transform="translate(45.035602, 14.910489) rotate(60.000000) translate(-45.035602, -14.910489) "></path>
                    <path d="M18.0459982,41 C18.6585034,41 39.527955,41 39.8905073,41 C40.2530597,41 41,41.2000474 41,42.5 C41,43.3666351 40.6301692,43.8666351 39.8905073,44 C25.6872026,44 18.4056996,44 18.0459982,44 C17.5064463,44 17,43.5771833 17,42.5 C17,41.4228167 17.4334931,41 18.0459982,41 Z" id="Line-7"></path>
                    <path d="M37.2036449,33.6296429 C37.8189274,33.6295654 58.783009,33.6269218 59.1472054,33.6268759 C59.5114016,33.62683 60.2617023,33.8382355 60.261529,35.2126114 C60.2614134,36.1288619 59.8898388,36.6575341 59.1468054,36.7986279 C44.8790974,36.800427 37.5645772,36.8013494 37.2032449,36.8013949 C36.6612463,36.8014633 36.1525599,36.3545042 36.1527036,35.2156514 C36.1528472,34.0767986 36.5883623,33.6297205 37.2036449,33.6296429 Z" id="Line-7" transform="translate(48.207116, 35.214135) rotate(120.000000) translate(-48.207116, -35.214135) "></path>
                    <path d="M18.0459982,45 C18.6585034,45 39.527955,45 39.8905073,45 C40.2530597,45 41,45.2000474 41,46.5 C41,47.3666351 40.6301692,47.8666351 39.8905073,48 C25.6872026,48 18.4056996,48 18.0459982,48 C17.5064463,48 17,47.5771833 17,46.5 C17,45.4228167 17.4334931,45 18.0459982,45 Z" id="Line-7" transform="translate(29.000000, 46.500000) rotate(180.000000) translate(-29.000000, -46.500000) "></path>
                    <path d="M-0.855007636,33.6268799 C-0.23972511,33.6269575 20.7243566,33.629601 21.088553,33.629647 C21.4527492,33.6296929 22.2031032,33.8412876 22.2032765,35.2156635 C22.2033921,36.131914 21.8319509,36.6604925 21.088953,36.8013989 C6.82124489,36.7995998 -0.493275291,36.7986775 -0.854607629,36.7986319 C-1.39660613,36.7985636 -1.90540524,36.3514762 -1.90554886,35.2126234 C-1.90569249,34.0737707 -1.47029016,33.6268023 -0.855007636,33.6268799 Z" id="Line-7" transform="translate(10.148864, 35.214139) rotate(-120.000000) translate(-10.148864, -35.214139) "></path>
                    <path d="M0,11.1849673 C5.99669484,7.99196311 14.5120542,2.97659529 31.4818863,8.40461313 C40.1742201,11.1849673 49.9902613,24.2390666 42.1131385,30.1363623 C39.8179968,28.2740476 40.4784517,28.7772545 39.8232772,28.3055709 C39.3757303,24.4272596 39.3757303,20.3596888 39.8232772,16.1028584 C39.0901832,20.4334805 38.7789109,24.2329338 38.8894606,27.5012186 C37.6436441,26.4258205 36.471296,25.524407 35.3741427,24.614092 C34.7955678,20.8198429 34.7955678,16.7646598 35.3741427,12.4485427 C34.5875001,15.9040401 34.2565279,19.6774118 34.3812264,23.7686577 C33.4235973,23 31.5787611,21.7211221 30.3990002,20.7680473 C29.9931887,17.2563553 29.9032191,13.4635952 30.1290911,9.38976678 C29.5779673,13.3383155 29.3987726,16.8870244 29.5915068,20.0358935 C28.1566117,19.1385512 27.0076699,18.4483437 25.4041578,17.4247483 C25.0000049,14.5482675 24.7979284,11.4040058 24.7979284,7.99196311 C24.5582799,10.9630162 24.5582799,13.9919637 24.7979284,17.0788055 C19.4876165,13.8142131 12.4653075,11.6079895 3.73100149,10.460135 C11.4606119,11.7857402 18.1275439,13.9919637 23.7317974,17.0788055 C20.7639476,17.5087425 17.3931973,18.529148 13.6195466,20.1400221 C19.0093351,18.529148 22.6156382,17.723711 24.4384558,17.723711 C25.9033577,18.7044958 27.2799146,19.5436254 29.0478298,20.7680473 C25.3651641,21.6597182 21.0101966,23.1935127 15.9829271,25.3694307 C23.1925546,22.8614674 27.9079425,21.551251 30.1290911,21.4387816 C31.1187579,22.3643497 32.653625,23.6174513 33.8078979,24.614092 C29.5454049,25.4758667 24.5121104,27.424955 18.7080144,30.4613571 C25.6012246,27.5538277 30.9168169,25.8565189 34.6547912,25.3694307 C35.6608069,26.3019137 36.8610802,27.3290644 38.0833888,28.3055709 C33.9116102,29.6155186 29.2068507,31.8666882 23.9691104,35.0590798 C29.970544,31.9939313 34.9439941,30.057859 38.8894606,29.2508628 C39.8232772,30.1363623 40.2294611,30.4613571 41.1799312,31.3724819 C39.4792395,49.3822457 18.1846465,34.47295 16.3712388,28.9557642 C14.5578312,23.4385784 9.75734774,12.13392 0,11.1849673 Z" id="Line-8"></path>
                    <polygon id="Line-9" points="43 32 52.7113561 42 53 39.1450893"></polygon>
                    <path d="M2.94602378,17.7948189 C3.18333893,17.794789 6.83345621,17.7659226 10.7842349,17.7654245 C10.6401168,18.6428702 10.3324741,19.8656318 9.98906996,20.9095751 C5.62498162,20.9101254 3.14278273,20.9381399 2.94562735,20.9381648 C2.40711065,20.9382327 1.90169197,20.4952768 1.90183432,19.3666235 C1.90197666,18.2379702 2.33469383,17.794896 2.94602378,17.7948189 Z" id="Line-7" transform="translate(6.343035, 19.351795) rotate(-60.000000) translate(-6.343035, -19.351795) "></path>
                    <path d="M6.74033754,20.3255401 C6.97500414,20.3255105 9.41462772,20.3039524 13.3213137,20.3034597 C13.0565388,21.1166047 12.3887945,22.624355 11.9372433,23.4503829 C7.62186048,23.4509271 6.93489525,23.476017 6.73994021,23.4760416 C6.20743364,23.4761087 5.70765643,23.0321435 5.7077991,21.900921 C5.70794176,20.7696984 6.13583035,20.3256163 6.74033754,20.3255401 Z" id="Line-7" transform="translate(9.514556, 21.889751) rotate(-60.000000) translate(-9.514556, -21.889751) "></path>
                    <path d="M13.6960429,2.5759207 C13.9256657,2.57589174 13.9682318,2.54824486 15.1568215,2.5380932 C15.6638093,3.43156824 16.2449641,4.44767209 17.1265985,5.69232757 C12.9039699,5.69286003 13.8864124,5.71000532 13.6956477,5.71002938 C13.1745867,5.71009508 12.6855526,5.26843895 12.6856945,4.14310242 C12.6858365,3.01776589 13.104529,2.57599529 13.6960429,2.5759207 Z" id="Line-7" transform="translate(14.906147, 4.124061) rotate(120.000000) translate(-14.906147, -4.124061) "></path>
                    <path d="M20.2978776,6.32029018 C19.5201086,6.34554603 19.6952582,6.34447036 19.4905746,6.34449617 C18.9314954,6.34456667 18.394595,5.9580304 18.3947181,4.98185445 C18.394794,4.38044159 18.5775096,4.00752664 18.856861,3.80718083 C19.3878703,4.73903019 19.5775897,5.11879594 20.2978776,6.32029018 Z" id="Line-7" transform="translate(19.346298, 5.075839) rotate(120.000000) translate(-19.346298, -5.075839) "></path>
                    <path d="M68.7570259,46.4656811 C68.723638,46.6663147 68.5344393,46.8247096 68.3341113,46.8247096 C68.1449127,46.8247096 67.9779727,46.6663147 68.0113607,46.4656811 L68.9684832,39.9609293 L65.6964597,39.9609293 L64.7393372,46.4656811 C64.7059492,46.6663147 64.5278799,46.8247096 64.3164226,46.8247096 C64.1160946,46.8247096 63.9714133,46.6663147 64.0048013,46.4656811 L65.0064411,39.6441394 C65.0398291,39.4540655 65.2290278,39.2851109 65.4293557,39.2851109 L69.4470445,39.2851109 C69.6362432,39.2851109 69.7920538,39.4540655 69.7586658,39.6441394 L68.7570259,46.4656811 Z M72.6949545,46.7930306 C72.2942986,46.7930306 71.8157373,46.7085533 71.370564,46.5712777 L71.0589427,48.6726505 C71.0366841,48.8521647 70.8808734,49 70.6582868,49 C70.4134415,49 70.3132775,48.8521647 70.3355362,48.6726505 L71.2147534,42.7909187 C71.2704,42.4213305 71.2481414,42.1995776 71.1257187,41.9883844 C71.1034601,41.9461457 71.0812014,41.8933474 71.0812014,41.8405491 C71.0812014,41.6504752 71.2815294,41.5026399 71.4595987,41.5026399 C71.60428,41.5026399 71.737832,41.6293559 71.837996,41.7983105 C72.4389799,41.5131996 73.0510931,41.2914467 73.618689,41.2914467 C74.7650102,41.2914467 75.2213128,42.093981 75.0432435,43.2661035 L74.8429155,44.6810982 C74.6537169,45.9271383 74.086121,46.7930306 72.6949545,46.7930306 Z M71.9381599,42.7909187 L71.4595987,45.969377 C71.837996,46.1383316 72.3610746,46.2228089 72.6726958,46.2228089 C73.5630424,46.2228089 73.952569,45.7476241 74.119509,44.6810982 L74.3198369,43.2661035 C74.4533889,42.3685322 74.152897,41.8827878 73.3404558,41.8827878 C72.9397998,41.8827878 72.4278505,42.0517423 71.9492893,42.3051742 C71.9604186,42.4635692 71.9604186,42.6219641 71.9381599,42.7909187 Z M79.4597333,45.4625132 L80.0273293,41.6610348 C80.0607173,41.4709609 80.1942692,41.3231257 80.4391145,41.3231257 C80.6728305,41.3231257 80.7841238,41.4709609 80.7507358,41.6610348 L80.1831399,45.4625132 C80.1052346,45.9904963 80.1497519,46.0749736 80.2053986,46.1488912 C80.2610452,46.2122492 80.3278212,46.3284055 80.3278212,46.4234424 C80.3278212,46.592397 80.1497519,46.7402323 79.9494239,46.7402323 C79.7602253,46.7402323 79.6378026,46.6029567 79.5265093,46.3917635 C78.9477841,46.687434 78.3356708,46.8035903 77.8125922,46.8035903 C76.6551417,46.8035903 76.1877098,46.0116156 76.3657791,44.8394931 L76.833211,41.6610348 C76.866599,41.4709609 77.0112803,41.3231257 77.2449963,41.3231257 C77.4787123,41.3231257 77.5788763,41.4709609 77.5566176,41.6610348 L77.0891857,44.8394931 C76.9556337,45.7053854 77.2783843,46.2122492 78.0240495,46.2122492 C78.4914815,46.2122492 78.9811721,46.0644139 79.4374747,45.810982 C79.4374747,45.7053854 79.4374747,45.5997888 79.4597333,45.4625132 Z M84.0320338,46.7930306 C83.6313779,46.7930306 83.1528166,46.7085533 82.7076433,46.5712777 L82.396022,48.6726505 C82.3737634,48.8521647 82.2179527,49 81.9953661,49 C81.7505208,49 81.6503568,48.8521647 81.6726155,48.6726505 L82.5518327,42.7909187 C82.6074793,42.4213305 82.5852207,42.1995776 82.462798,41.9883844 C82.4405394,41.9461457 82.4182807,41.8933474 82.4182807,41.8405491 C82.4182807,41.6504752 82.6186087,41.5026399 82.796678,41.5026399 C82.9413593,41.5026399 83.0749113,41.6293559 83.1750753,41.7983105 C83.7760592,41.5131996 84.3881724,41.2914467 84.9557684,41.2914467 C86.1020895,41.2914467 86.5583921,42.093981 86.3803228,43.2661035 L86.1799948,44.6810982 C85.9907962,45.9271383 85.4232003,46.7930306 84.0320338,46.7930306 Z M83.2752393,42.7909187 L82.796678,45.969377 C83.1750753,46.1383316 83.6981539,46.2228089 84.0097751,46.2228089 C84.9001217,46.2228089 85.2896483,45.7476241 85.4565883,44.6810982 L85.6569163,43.2661035 C85.7904682,42.3685322 85.4899763,41.8827878 84.6775351,41.8827878 C84.2768791,41.8827878 83.7649298,42.0517423 83.2863686,42.3051742 C83.2974979,42.4635692 83.2974979,42.6219641 83.2752393,42.7909187 Z M89.1385422,46.8035903 C87.8030224,46.8035903 87.2020385,46.001056 87.3578491,44.9556494 L87.6249531,43.1393875 C87.7807637,42.093981 88.6265929,41.280887 89.9621128,41.280887 C91.3087619,41.280887 91.8986165,42.093981 91.7428058,43.1393875 L91.4757019,44.9556494 C91.3198912,46.001056 90.4851914,46.8035903 89.1385422,46.8035903 Z M89.2387062,46.1805702 C90.1290527,46.1805702 90.641002,45.7159451 90.7522953,44.9556494 L91.0193993,43.1288279 C91.1306926,42.3685322 90.7634247,41.8933474 89.8730781,41.8933474 C88.9938609,41.8933474 88.459653,42.3685322 88.3483597,43.1288279 L88.0812557,44.9556494 C87.9699624,45.7159451 88.359489,46.1805702 89.2387062,46.1805702 Z M94.9350692,39.4540655 C94.9795865,39.2534319 95.0908798,39.1689546 95.5360531,39.1689546 C97.4948155,39.1689546 97.7507901,40.7423442 97.6617555,42.0728617 C97.4169102,45.7265048 96.470917,46.8141499 94.6568359,46.8247096 C93.3880921,46.8352693 92.7092028,45.9588173 92.7092028,44.6810982 C92.7092028,43.1816262 93.655196,41.7032735 95.1687851,41.7032735 C95.6139584,41.7032735 96.3484943,41.8299894 96.9049609,42.3051742 C97.0051249,41.6187962 96.9828662,41.1224921 96.8381849,40.7317846 C96.5265636,39.8870116 95.7475104,39.7919747 95.1576558,39.7286167 C94.9795865,39.7074974 94.8905519,39.6758184 94.9350692,39.4540655 Z M96.7602796,43.7412883 L96.8270556,42.9915523 C96.4931756,42.5902851 95.7141224,42.3262936 95.1799145,42.3262936 C94.1448866,42.3262936 93.4437387,43.3083421 93.4437387,44.6071806 C93.4437387,45.5258712 93.7998773,46.1805702 94.8571639,46.1805702 C95.9923557,46.1805702 96.5154343,45.4308342 96.7602796,43.7412883 Z M99.2625244,46.4656811 C99.2291364,46.655755 99.051067,46.8035903 98.8507391,46.8035903 C98.6504111,46.8035903 98.5057298,46.655755 98.5391178,46.4656811 L99.2402657,41.6715945 C99.2736537,41.4815206 99.4628523,41.3231257 99.6631803,41.3231257 C99.8635083,41.3231257 99.9970602,41.4815206 99.9636723,41.6715945 L99.6743096,43.6779303 L102.278573,43.6779303 L102.567936,41.6715945 C102.601324,41.4815206 102.790523,41.3231257 102.99085,41.3231257 C103.191178,41.3231257 103.32473,41.4815206 103.291342,41.6715945 L102.590195,46.4656811 C102.556807,46.655755 102.378737,46.8035903 102.178409,46.8035903 C101.978081,46.8035903 101.8334,46.655755 101.866788,46.4656811 L102.189539,44.2375924 L99.585275,44.2375924 L99.2625244,46.4656811 Z M105.815846,46.8035903 C104.658395,46.8035903 104.179834,46.001056 104.357903,44.8394931 L104.569361,43.4561774 C104.758559,42.1995776 105.381802,41.2914467 106.873132,41.2914467 C108.24204,41.2914467 108.664955,42.030623 108.464627,43.4139388 L108.119618,45.8004224 C108.0751,46.0749736 108.153006,46.2122492 108.353334,46.2122492 C108.397851,46.2122492 108.42011,46.2016895 108.442368,46.2016895 C108.587049,46.2016895 108.653825,46.3178458 108.653825,46.4445618 C108.653825,46.687434 108.397851,46.7719113 108.186394,46.7719113 C107.841384,46.7719113 107.57428,46.5395987 107.429599,46.1700106 C106.928779,46.592397 106.372312,46.8035903 105.815846,46.8035903 Z M106.08295,46.2122492 C106.550382,46.2122492 106.951038,46.0432946 107.40734,45.6948258 L107.785738,43.1288279 C107.90816,42.2734952 107.58541,41.8722281 106.784098,41.8722281 C105.882622,41.8722281 105.459707,42.3790919 105.292767,43.4561774 L105.08131,44.8394931 C104.947758,45.7370644 105.270509,46.2122492 106.08295,46.2122492 Z M113.304031,46.8035903 C113.092574,46.8035903 112.959022,46.655755 112.99241,46.4656811 L113.281773,44.4804646 L112.15771,44.4804646 C111.590114,45.1668427 110.933484,45.969377 110.3325,46.6451954 C110.243465,46.7402323 110.121042,46.8035903 110.009749,46.8035903 C109.83168,46.8035903 109.709257,46.7085533 109.709257,46.5501584 C109.709257,46.5079197 109.753774,46.3706441 109.798292,46.3284055 L111.412045,44.4487856 C110.610733,44.279831 110.265724,43.8257656 110.265724,43.1605069 C110.265724,42.12566 110.98913,41.3864836 112.346909,41.3864836 L114.116472,41.3864836 C114.305671,41.3864836 114.439223,41.5448786 114.416964,41.7349525 L113.715817,46.4656811 C113.682429,46.655755 113.49323,46.8035903 113.304031,46.8035903 Z M110.978001,43.1077086 C110.978001,43.5195354 111.200588,43.9208025 112.124322,43.9208025 L113.370807,43.9208025 L113.66017,41.9567054 L112.280133,41.9567054 C111.445433,41.9567054 110.978001,42.3368532 110.978001,43.1077086 Z M120.467611,46.8035903 C119.310161,46.8035903 118.831599,46.001056 119.009669,44.8394931 L119.221126,43.4561774 C119.410325,42.1995776 120.033567,41.2914467 121.524898,41.2914467 C122.893805,41.2914467 123.31672,42.030623 123.116392,43.4139388 L122.771383,45.8004224 C122.726866,46.0749736 122.804771,46.2122492 123.005099,46.2122492 C123.049616,46.2122492 123.071875,46.2016895 123.094133,46.2016895 C123.238815,46.2016895 123.305591,46.3178458 123.305591,46.4445618 C123.305591,46.687434 123.049616,46.7719113 122.838159,46.7719113 C122.49315,46.7719113 122.226046,46.5395987 122.081364,46.1700106 C121.580544,46.592397 121.024078,46.8035903 120.467611,46.8035903 Z M120.734715,46.2122492 C121.202147,46.2122492 121.602803,46.0432946 122.059106,45.6948258 L122.437503,43.1288279 C122.559926,42.2734952 122.237175,41.8722281 121.435863,41.8722281 C120.534387,41.8722281 120.111473,42.3790919 119.944533,43.4561774 L119.733075,44.8394931 C119.599523,45.7370644 119.922274,46.2122492 120.734715,46.2122492 Z M125.351533,46.4656811 C125.318145,46.655755 125.140076,46.8035903 124.950877,46.8035903 C124.73942,46.8035903 124.605868,46.655755 124.639256,46.4656811 L125.329274,41.7349525 C125.362662,41.5448786 125.540732,41.3864836 125.752189,41.3864836 L128.957436,41.3864836 C129.157764,41.3864836 129.291316,41.5448786 129.257928,41.7349525 L128.56791,46.4656811 C128.534522,46.655755 128.356453,46.8035903 128.156125,46.8035903 C127.955797,46.8035903 127.811115,46.655755 127.844503,46.4656811 L128.512263,41.9461457 L126.019293,41.9461457 L125.351533,46.4656811 Z M131.626621,41.8088701 C132.205346,41.4815206 132.80633,41.2914467 133.396185,41.2914467 C133.98604,41.2914467 134.375566,41.5026399 134.631541,41.8827878 C135.188007,41.5131996 135.777862,41.2914467 136.389975,41.2914467 C137.569684,41.2914467 138.103892,42.0095037 137.948082,43.0654699 L137.547426,45.7793031 C137.502908,46.0221753 137.536296,46.1911299 137.64759,46.3495248 C137.658719,46.3706441 137.669848,46.4340021 137.669848,46.4762408 C137.669848,46.655755 137.514038,46.8035903 137.30258,46.8035903 C137.057735,46.8035903 136.690467,46.687434 136.824019,45.7793031 L137.224675,43.0865892 C137.31371,42.4318902 137.035476,41.9039071 136.267553,41.9039071 C135.744474,41.9039071 135.188007,42.1784583 134.831869,42.5374868 C134.842998,42.6958817 134.831869,42.8648363 134.80961,43.0654699 L134.30879,46.4656811 C134.275402,46.655755 134.14185,46.7930306 133.897005,46.7930306 C133.65216,46.7930306 133.551996,46.655755 133.585384,46.4656811 L134.052815,43.3083421 C134.175238,42.4846885 134.108462,41.9039071 133.218116,41.9039071 C132.706166,41.9039071 132.127441,42.1362196 131.737914,42.3896515 C131.737914,42.5163675 131.737914,42.6325238 131.715656,42.7697994 L131.170319,46.4656811 C131.136931,46.655755 130.992249,46.7930306 130.758533,46.7930306 C130.513688,46.7930306 130.413524,46.655755 130.446912,46.4656811 L130.992249,42.7697994 C131.047896,42.4002112 131.025637,42.1784583 130.903215,41.967265 C130.880956,41.9250264 130.869827,41.8722281 130.869827,41.8194298 C130.869827,41.6293559 131.059025,41.4815206 131.237095,41.4815206 C131.381776,41.4815206 131.537587,41.5765576 131.626621,41.8088701 Z M141.040181,46.2228089 C141.55213,46.2228089 141.88601,46.0855333 142.308925,45.9165787 C142.331183,45.906019 142.38683,45.8848997 142.431347,45.8848997 C142.598287,45.8848997 142.709581,46.0116156 142.709581,46.1488912 C142.709581,46.6451954 141.451966,46.8035903 140.839853,46.8035903 C139.593368,46.8035903 138.992384,46.0538543 139.137065,45.0823654 L139.437557,43.0549102 C139.582238,42.0517423 140.405809,41.2914467 141.71907,41.2914467 C142.798615,41.2914467 143.299435,41.8405491 143.299435,42.6958817 C143.299435,43.7940866 142.698451,44.5121436 141.207121,44.5121436 C140.839853,44.5121436 140.38355,44.4804646 139.960636,44.3959873 L139.849342,45.1457233 C139.760308,45.7898627 140.149834,46.2228089 141.040181,46.2228089 Z M142.587158,42.7697994 C142.587158,42.157339 142.231019,41.8933474 141.596648,41.8933474 C140.795336,41.8933474 140.272257,42.3157339 140.172093,42.9704329 L140.038541,43.8680042 C140.505973,43.9313622 141.095828,43.9524815 141.329544,43.9524815 C142.264407,43.9524815 142.587158,43.4772967 142.587158,42.7697994 Z M144.97811,46.4656811 C144.944722,46.655755 144.755523,46.8035903 144.566324,46.8035903 C144.354867,46.8035903 144.221315,46.655755 144.254703,46.4656811 L144.955851,41.6715945 C144.989239,41.4815206 145.167308,41.3231257 145.378765,41.3231257 C145.567964,41.3231257 145.712645,41.4815206 145.679257,41.6715945 L145.389895,43.6779303 L146.224595,43.6779303 L148.060934,41.5026399 C148.161098,41.3864836 148.261262,41.3336853 148.383685,41.3336853 C148.550625,41.3336853 148.673048,41.4287223 148.673048,41.5765576 C148.673048,41.6610348 148.63966,41.7560718 148.584013,41.8194298 L146.647509,44.0791975 L147.916253,46.3284055 C147.938512,46.3600845 147.96077,46.4551214 147.96077,46.5079197 C147.96077,46.687434 147.771572,46.8035903 147.571244,46.8035903 C147.437692,46.8035903 147.348657,46.750792 147.293011,46.6451954 L145.979749,44.2375924 L145.30086,44.2375924 L144.97811,46.4656811 Z M150.618826,46.8035903 C149.461375,46.8035903 148.982814,46.001056 149.160883,44.8394931 L149.372341,43.4561774 C149.561539,42.1995776 150.184782,41.2914467 151.676112,41.2914467 C153.04502,41.2914467 153.467935,42.030623 153.267607,43.4139388 L152.922598,45.8004224 C152.87808,46.0749736 152.955986,46.2122492 153.156313,46.2122492 C153.200831,46.2122492 153.223089,46.2016895 153.245348,46.2016895 C153.390029,46.2016895 153.456805,46.3178458 153.456805,46.4445618 C153.456805,46.687434 153.200831,46.7719113 152.989374,46.7719113 C152.644364,46.7719113 152.37726,46.5395987 152.232579,46.1700106 C151.731759,46.592397 151.175292,46.8035903 150.618826,46.8035903 Z M150.88593,46.2122492 C151.353362,46.2122492 151.754018,46.0432946 152.21032,45.6948258 L152.588718,43.1288279 C152.71114,42.2734952 152.38839,41.8722281 151.587078,41.8722281 C150.685602,41.8722281 150.262687,42.3790919 150.095747,43.4561774 L149.88429,44.8394931 C149.750738,45.7370644 150.073489,46.2122492 150.88593,46.2122492 Z M158.316614,44.1531151 L158.661623,41.8405491 C158.906468,40.2249208 159.852461,39.1689546 161.54412,39.1689546 C162.490113,39.1689546 163.347072,39.5385428 163.347072,39.9714889 C163.347072,40.1615628 163.191261,40.3093981 162.979804,40.3093981 C162.87964,40.3093981 162.823993,40.2671595 162.746088,40.2143611 C162.723829,40.1932418 162.679312,40.1721225 162.645924,40.1510032 C162.312044,39.9186906 161.944776,39.7919747 161.499603,39.7919747 C160.152953,39.7919747 159.596487,40.5839493 159.407288,41.8405491 L159.062279,44.1531151 C158.88421,45.3991552 159.20696,46.1911299 160.553609,46.1911299 C160.998783,46.1911299 161.399439,46.0855333 161.777836,45.8532207 L161.911388,45.7793031 C162.03381,45.7053854 162.100586,45.6737064 162.178492,45.6737064 C162.356561,45.6737064 162.456725,45.7898627 162.456725,45.937698 C162.456725,46.4128828 161.432827,46.8141499 160.408928,46.8141499 C158.71727,46.8141499 158.082898,45.7581837 158.316614,44.1531151 Z M167.173707,45.4625132 L167.741303,41.6610348 C167.774691,41.4709609 167.908243,41.3231257 168.153088,41.3231257 C168.386804,41.3231257 168.498097,41.4709609 168.464709,41.6610348 L167.897113,45.4625132 C167.819208,45.9904963 167.863725,46.0749736 167.919372,46.1488912 C167.975019,46.2122492 168.041795,46.3284055 168.041795,46.4234424 C168.041795,46.592397 167.863725,46.7402323 167.663397,46.7402323 C167.474199,46.7402323 167.351776,46.6029567 167.240483,46.3917635 C166.661758,46.687434 166.049644,46.8035903 165.526566,46.8035903 C164.369115,46.8035903 163.901683,46.0116156 164.079753,44.8394931 L164.547185,41.6610348 C164.580573,41.4709609 164.725254,41.3231257 164.95897,41.3231257 C165.192686,41.3231257 165.29285,41.4709609 165.270591,41.6610348 L164.803159,44.8394931 C164.669607,45.7053854 164.992358,46.2122492 165.738023,46.2122492 C166.205455,46.2122492 166.695146,46.0644139 167.151448,45.810982 C167.151448,45.7053854 167.151448,45.5997888 167.173707,45.4625132 Z M170.065478,41.6187962 C170.265806,40.2777191 171.03373,39.4857445 172.602966,39.3379092 C172.680871,39.3273495 172.769906,39.3167899 172.814423,39.3167899 C173.070398,39.3062302 173.20395,39.3062302 173.86058,39.031679 C173.882839,39.0211193 173.949615,39 173.994132,39 C174.149943,39 174.261236,39.1267159 174.261236,39.2745512 C174.261236,39.813094 173.081527,39.8975713 172.502802,39.9398099 C171.968594,39.9820486 171.011471,40.0876452 170.800014,41.5554382 L170.677591,42.3685322 C171.156153,41.8827878 171.690361,41.5976769 172.302474,41.5976769 C173.482183,41.5976769 174.060908,42.4107709 173.916227,43.4561774 L173.69364,44.9556494 C173.53783,46.001056 172.70313,46.8035903 171.356481,46.8035903 C170.020961,46.8035903 169.419977,46.001056 169.575788,44.9556494 L170.065478,41.6187962 Z M171.445515,46.1805702 C172.335862,46.1805702 172.847811,45.7159451 172.970234,44.9556494 L173.19282,43.4456177 C173.304114,42.6853221 172.981363,42.2101373 172.102146,42.2101373 C171.234058,42.2101373 170.655333,42.6642027 170.521781,43.3928194 L170.299194,44.9556494 C170.176772,45.7159451 170.566298,46.1805702 171.445515,46.1805702 Z M178.366105,45.4625132 L178.933701,41.6610348 C178.967089,41.4709609 179.100641,41.3231257 179.345486,41.3231257 C179.579202,41.3231257 179.690495,41.4709609 179.657107,41.6610348 L179.089511,45.4625132 C179.011606,45.9904963 179.056123,46.0749736 179.11177,46.1488912 C179.167417,46.2122492 179.234193,46.3284055 179.234193,46.4234424 C179.234193,46.592397 179.056123,46.7402323 178.855795,46.7402323 C178.666597,46.7402323 178.544174,46.6029567 178.432881,46.3917635 C177.854156,46.687434 177.242042,46.8035903 176.718964,46.8035903 C175.561513,46.8035903 175.094081,46.0116156 175.272151,44.8394931 L175.739583,41.6610348 C175.772971,41.4709609 175.917652,41.3231257 176.151368,41.3231257 C176.385084,41.3231257 176.485248,41.4709609 176.462989,41.6610348 L175.995557,44.8394931 C175.862005,45.7053854 176.184756,46.2122492 176.930421,46.2122492 C177.397853,46.2122492 177.887544,46.0644139 178.343846,45.810982 C178.343846,45.7053854 178.343846,45.5997888 178.366105,45.4625132 Z M182.938405,46.7930306 C182.537749,46.7930306 182.059188,46.7085533 181.614015,46.5712777 L181.302394,48.6726505 C181.280135,48.8521647 181.124324,49 180.901738,49 C180.656892,49 180.556728,48.8521647 180.578987,48.6726505 L181.458204,42.7909187 C181.513851,42.4213305 181.491592,42.1995776 181.36917,41.9883844 C181.346911,41.9461457 181.324652,41.8933474 181.324652,41.8405491 C181.324652,41.6504752 181.52498,41.5026399 181.70305,41.5026399 C181.847731,41.5026399 181.981283,41.6293559 182.081447,41.7983105 C182.682431,41.5131996 183.294544,41.2914467 183.86214,41.2914467 C185.008461,41.2914467 185.464764,42.093981 185.286694,43.2661035 L185.086366,44.6810982 C184.897168,45.9271383 184.329572,46.7930306 182.938405,46.7930306 Z M182.181611,42.7909187 L181.70305,45.969377 C182.081447,46.1383316 182.604525,46.2228089 182.916147,46.2228089 C183.806493,46.2228089 184.19602,45.7476241 184.36296,44.6810982 L184.563288,43.2661035 C184.69684,42.3685322 184.396348,41.8827878 183.583907,41.8827878 C183.183251,41.8827878 182.671301,42.0517423 182.19274,42.3051742 C182.203869,42.4635692 182.203869,42.6219641 182.181611,42.7909187 Z M189.703184,45.4625132 L190.27078,41.6610348 C190.304168,41.4709609 190.43772,41.3231257 190.682565,41.3231257 C190.916281,41.3231257 191.027575,41.4709609 190.994187,41.6610348 L190.426591,45.4625132 C190.348685,45.9904963 190.393203,46.0749736 190.448849,46.1488912 C190.504496,46.2122492 190.571272,46.3284055 190.571272,46.4234424 C190.571272,46.592397 190.393203,46.7402323 190.192875,46.7402323 C190.003676,46.7402323 189.881253,46.6029567 189.76996,46.3917635 C189.191235,46.687434 188.579122,46.8035903 188.056043,46.8035903 C186.898593,46.8035903 186.431161,46.0116156 186.60923,44.8394931 L187.076662,41.6610348 C187.11005,41.4709609 187.254731,41.3231257 187.488447,41.3231257 C187.722163,41.3231257 187.822327,41.4709609 187.800068,41.6610348 L187.332636,44.8394931 C187.199085,45.7053854 187.521835,46.2122492 188.2675,46.2122492 C188.734932,46.2122492 189.224623,46.0644139 189.680926,45.810982 C189.680926,45.7053854 189.680926,45.5997888 189.703184,45.4625132 Z" id="Природная-аптека-Сиб"></path>
                </g>
            </g>
        </g>
    </g>
</svg>