<?xml version="1.0" encoding="UTF-8"?>
<svg width="18px" height="14px" viewBox="0 0 18 14" version="1.1" xmlns="http://www.w3.org/2000/svg" xmlns:xlink="http://www.w3.org/1999/xlink">
    <!-- Generator: Sketch 52.1 (67048) - http://www.bohemiancoding.com/sketch -->
    <title>black-envelope</title>
    <desc>Created with Sketch.</desc>
    <g id="Page-1" stroke="none" stroke-width="1" fill="none" fill-rule="evenodd">
        <g id="Main" transform="translate(-1244.000000, -68.000000)" fill="#000000">
            <g id="main">
                <g id="top-block" transform="translate(224.000000, 34.000000)">
                    <g id="menu-2">
                        <g id="top-menu">
                            <g id="mail" transform="translate(1020.000000, 29.000000)">
                                <g id="black-envelope" transform="translate(0.000000, 5.000000)">
                                    <path d="M1.51933425,0.720482952 L7.92093808,5.69131499 C8.21122408,5.91646591 8.61124457,6.01653298 8.99978122,5.99777041 C9.38767987,6.01653298 9.78770036,5.91709133 10.0779864,5.69131499 L16.4795902,0.720482952 C16.9925351,0.32459258 16.8764207,0 16.2256697,0 L9.00041921,0 L1.77516873,0 C1.1237797,5.55483863e-16 1.0076653,0.32459258 1.51933425,0.720482952 Z" id="Path"></path>
                                    <path d="M17.0436874,2.60262128 L9.95857415,8.03140584 C9.69364971,8.23225456 9.34666332,8.3300705 9.00096924,8.32550576 C8.654629,8.3300705 8.3076426,8.23160246 8.04271817,8.03140584 L0.956312596,2.60262128 C0.430340668,2.20027172 0,2.41611889 0,3.08191937 L0,11.9890387 C0,12.6548392 0.540187386,13.2 1.19991385,13.2 L8.99967692,13.2 L16.8000862,13.2 C17.4598126,13.2 18,12.6548392 18,11.9890387 L18,3.08191937 C18,2.41611889 17.5696593,2.20027172 17.0436874,2.60262128 Z" id="Path"></path>
                                </g>
                            </g>
                        </g>
                    </g>
                </g>
            </g>
        </g>
    </g>
</svg>