<?xml version="1.0" encoding="UTF-8"?>
<svg width="28px" height="40px" viewBox="0 0 28 40" version="1.1" xmlns="http://www.w3.org/2000/svg" xmlns:xlink="http://www.w3.org/1999/xlink">
    <!-- Generator: Sketch 52.1 (67048) - http://www.bohemiancoding.com/sketch -->
    <title>facebook-placeholder-for-locate-places-on-maps</title>
    <desc>Created with Sketch.</desc>
    <g id="Page-1" stroke="none" stroke-width="1" fill="none" fill-rule="evenodd">
        <g id="Contacts" transform="translate(-800.000000, -905.000000)" fill="#0A9740" fill-rule="nonzero">
            <g id="facebook-placeholder-for-locate-places-on-maps" transform="translate(800.000000, 905.000000)">
                <path d="M27.0380917,9.95561631 C26.8950053,9.42198911 26.60444,8.85339434 26.3894833,8.35557168 C23.8172931,2.20444395 18.1971106,0 13.6590948,0 C7.58413879,0 0.893285174,4.05344642 0,12.4085531 L0,14.1155464 C0,14.1867835 0.0246732879,14.8267083 0.0597205719,15.1468103 C0.560476165,19.1286476 3.7180028,23.3604657 6.07617099,27.3423031 C8.61322051,31.6084378 11.2457856,35.8051024 13.8539577,40 C15.4622075,37.2624868 17.0646628,34.4889831 18.6362764,31.8223351 C19.064601,31.03975 19.5618051,30.25763 19.9905969,29.5106635 C20.2763959,29.0133058 20.8223858,28.5159481 21.071829,28.053186 C23.6087851,23.4312378 27.6923077,18.7735781 27.6923077,14.1866905 L27.6923077,12.3023485 C27.6924012,11.8050838 27.0729521,10.062844 27.0380917,9.95561631 Z M13.7703115,18.5247133 C11.9845823,18.5247133 10.0299719,17.6362026 9.06519028,15.1824288 C8.92144969,14.7918338 8.93303866,14.0090627 8.93303866,13.9373606 L8.93303866,12.8351387 C8.93303866,9.70703048 11.6022398,8.28452058 13.9243327,8.28452058 C16.7830695,8.28452058 18.9940391,10.5603876 18.9940391,13.4050354 C18.9940391,16.2495902 16.6290484,18.5247133 13.7703115,18.5247133 Z" id="Facebook_Places"></path>
            </g>
        </g>
    </g>
</svg>