<?xml version="1.0" encoding="UTF-8"?>
<svg width="11px" height="18px" viewBox="0 0 11 18" version="1.1" xmlns="http://www.w3.org/2000/svg" xmlns:xlink="http://www.w3.org/1999/xlink">
    <!-- Generator: Sketch 52.1 (67048) - http://www.bohemiancoding.com/sketch -->
    <title>Group 5</title>
    <desc>Created with Sketch.</desc>
    <g id="Page-1" stroke="none" stroke-width="1" fill="none" fill-rule="evenodd">
        <g id="Main" transform="translate(-320.000000, -3905.000000)" fill="#FFFFFF" fill-rule="nonzero">
            <g id="footer" transform="translate(0.000000, 3768.000000)">
                <g id="soc-icons" transform="translate(225.000000, 126.000000)">
                    <g id="instagram-logo" transform="translate(95.000000, 0.000000)">
                        <g id="Group-5" transform="translate(0.000000, 11.000000)">
                            <path d="M5.46616894,1.78474097e-05 C8.05027623,0.00706593033 10.124348,2.11796677 10.1110475,4.72711285 C10.0980184,7.27607914 7.99001658,9.34198068 5.41025233,9.33330612 C2.85681775,9.32463155 0.762659379,7.21047776 0.77786001,4.65636094 C0.792246322,2.07432287 2.88749045,-0.00703023551 5.46616894,1.78474097e-05 Z M5.33838384,6.44444444 C6.16681096,6.44444444 6.83838384,5.77287157 6.83838384,4.94444444 C6.83838384,4.11601732 6.16681096,3.44444444 5.33838384,3.44444444 C4.50995671,3.44444444 3.83838384,4.11601732 3.83838384,4.94444444 C3.83838384,5.77287157 4.50995671,6.44444444 5.33838384,6.44444444 Z M10.6032378,11.0916367 C10.0420893,11.6391395 9.36657849,12.0353886 8.61642561,12.3118003 C7.90732587,12.5730105 7.13024853,12.7045024 6.36090197,12.7921637 C6.47739693,12.9122545 6.53204559,12.9712865 6.60455504,13.0401994 C7.64847781,14.0376629 8.69746558,15.0300592 9.73792282,16.0303096 C10.0924727,16.3713271 10.166315,16.7939253 9.97117931,17.1899211 C9.75818281,17.6231603 9.28020694,17.9079327 8.81129474,17.8772765 C8.51432591,17.8577681 8.28266889,17.7176621 8.0771366,17.5208043 C7.28912952,16.7673229 6.48619403,16.0272694 5.71471484,15.2596 C5.48945571,15.0361398 5.38175786,15.0787036 5.18315662,15.2727745 C4.3906177,16.0485513 3.58501642,16.8119136 2.7748833,17.5712222 C2.41100317,17.9122397 1.97807912,17.9740586 1.55581823,17.7789743 C1.10716602,17.5727424 0.821926656,17.137223 0.843786122,16.6991701 C0.859247695,16.4037567 1.01226395,16.1772563 1.22606019,15.975078 C2.25958639,14.9948427 3.28991364,14.0115672 4.32050746,13.0290518 C4.38901823,12.9639392 4.45246399,12.894773 4.5518979,12.7934305 C3.14622764,12.6538312 1.87864521,12.3249748 0.793402719,11.5185419 C0.658513822,11.4182129 0.519626242,11.3214308 0.396999972,11.2089406 C-0.078310115,10.7754481 -0.126027729,10.2786165 0.249581869,9.76734366 C0.571342539,9.3295441 1.11089813,9.21249352 1.6720466,9.46407626 C1.78081077,9.5124673 1.88424337,9.5737795 1.9834107,9.6386387 C4.00567784,10.9593847 6.7839626,10.9956147 8.81422711,9.6976707 C9.01522756,9.55173751 9.23035669,9.43164666 9.47960792,9.37109452 C9.96371511,9.25252381 10.4158328,9.42201912 10.6754806,9.82485553 C10.972716,10.2852038 10.9692505,10.734151 10.6032378,11.0916367 Z" id="Combined-Shape"></path>
                        </g>
                    </g>
                </g>
            </g>
        </g>
    </g>
</svg>