<?xml version="1.0" encoding="UTF-8"?>
<svg width="18px" height="18px" viewBox="0 0 18 18" version="1.1" xmlns="http://www.w3.org/2000/svg" xmlns:xlink="http://www.w3.org/1999/xlink">
    <!-- Generator: Sketch 52.1 (67048) - http://www.bohemiancoding.com/sketch -->
    <title>Path</title>
    <desc>Created with Sketch.</desc>
    <g id="Page-1" stroke="none" stroke-width="1" fill="none" fill-rule="evenodd">
        <g id="Main" transform="translate(-1213.000000, -35.000000)" fill="#000000" fill-rule="nonzero">
            <g id="main">
                <g id="top-block" transform="translate(224.000000, 34.000000)">
                    <g id="menu-2">
                        <g id="top-menu">
                            <g id="phone" transform="translate(989.000000, 0.000000)">
                                <path d="M17.9193221,15.3506123 L17.8294545,15.0771466 C17.6185342,14.4482066 16.9232785,13.7918888 16.2827058,13.6160581 L13.9177114,12.9694913 C13.2771387,12.7956609 12.3631509,13.0300601 11.8925643,13.5007962 L11.0371342,14.3563846 C7.92801308,13.5144851 5.48877479,11.0747956 4.64896837,7.96509933 L5.50439851,7.10951094 C5.97311023,6.64071251 6.20746609,5.72655557 6.03366779,5.08392668 L5.38909543,2.71843231 C5.21529712,2.07774112 4.55516353,1.38235678 3.92633988,1.17139749 L3.6567994,1.0815132 C3.02597591,0.870553911 2.12567444,1.0834509 1.65696272,1.55424954 L0.375817342,2.83563192 C0.147336001,3.06221783 0.00084796437,3.71266002 0.00084796437,3.71466023 C-0.0421485243,7.78151786 1.55153383,11.6979225 4.42629905,14.5751572 C7.29325242,17.4426409 11.1953088,19.0346804 15.2476653,18.9994268 C15.2691636,18.9994268 15.9390464,18.8568495 16.1675277,18.6282634 L17.4486731,17.346881 C17.9173848,16.8800203 18.1282426,15.9795523 17.9193221,15.3506123 Z" id="Path"></path>
                            </g>
                        </g>
                    </g>
                </g>
            </g>
        </g>
    </g>
</svg>