<?xml version="1.0" encoding="UTF-8"?>
<svg width="120px" height="21px" viewBox="0 0 120 21" version="1.1" xmlns="http://www.w3.org/2000/svg" xmlns:xlink="http://www.w3.org/1999/xlink">
    <!-- Generator: Sketch 52.1 (67048) - http://www.bohemiancoding.com/sketch -->
    <title>redder</title>
    <desc>Created with Sketch.</desc>
    <g id="Page-1" stroke="none" stroke-width="1" fill="none" fill-rule="evenodd">
        <g id="Main" transform="translate(-1256.000000, -4036.000000)" fill="#434343">
            <g id="footer" transform="translate(0.000000, 3768.000000)">
                <g id="underfooter" transform="translate(224.000000, 267.000000)">
                    <g id="redder" transform="translate(1032.000000, 1.000000)">
                        <path d="M0,0.0408474091 C6.34056635,0.0408474091 9.51715395,0.0408474091 9.52976288,0.0408474091 C13.6124556,0.311761772 15.727874,3.00097466 16.2935204,5.88610435 C16.875643,8.85527108 15.5312639,11.9565336 13.3736644,13.3319235 C13.3964039,13.367215 14.9868431,15.7952171 18.1449821,20.6159301 L11.5233533,20.6159301 L7.98449738,14.5525642 L5.26414866,14.5525642 L5.26414866,20.6159301 L0,20.6159301 L0,0.0408474091 Z M5.2549091,4.74857341 L5.2549091,9.88844265 C7.9117959,9.88844265 9.2586615,9.88844265 9.29550593,9.88844265 C10.6535366,9.64790325 11.1894769,8.3601231 11.1894769,7.24832685 C11.1894769,6.25131807 10.7462163,5.01579353 9.29550593,4.74857341 C9.28457363,4.74857341 7.93770795,4.74857341 5.2549091,4.74857341 Z" id="Combined-Shape" fill-rule="nonzero"></path>
                        <polygon id="Rectangle-3" points="21.0533946 0.0409696142 34.1638599 0.0409696142 34.1638599 4.76080071 26.2567569 4.76080071 26.2567569 7.6717458 33.2671926 7.6717458 33.2671926 12.2988854 26.2567569 12.2988854 26.2567569 15.9454303 34.1638599 15.9454303 34.1638599 20.6160326 21.0533946 20.6160326"></polygon>
                        <path d="M39.1681455,0.0409286781 C43.6501133,0.0409286781 46.3133219,0.0409286781 47.157771,0.0409286781 C53.7569876,0.189301657 56.9933645,5.39431789 56.9639569,10.3285014 C56.9345493,15.2626849 54.1405771,19.7853817 48.1194091,20.6160742 C47.1526378,20.6160742 44.1688834,20.6160742 39.1681455,20.6160742 L39.1681455,0.0409286781 Z M44.4062885,4.80170587 L44.4062885,15.8225834 C45.6282131,15.8225834 46.5134965,15.8225834 47.0621384,15.8225834 C50.172358,15.8225834 51.8763971,12.9318175 51.8281427,10.3114053 C51.7798882,7.69099312 50.5120022,5.08299445 47.0621384,4.80170587 C46.5829142,4.80170587 45.6976308,4.80170587 44.4062885,4.80170587 Z" id="Combined-Shape" fill-rule="nonzero"></path>
                        <path d="M61.4544213,0.0409696142 C65.9363891,0.0409696142 68.5995976,0.0409696142 69.4440467,0.0409696142 C76.0432635,0.189342592 79.2796402,5.39435882 79.2502327,10.3285423 C79.2208253,15.2627259 76.4268532,19.7854227 70.4056848,20.6161151 C69.4389136,20.6161151 66.4551592,20.6161151 61.4544213,20.6161151 L61.4544213,0.0409696142 Z M66.6925642,4.80174681 L66.6925642,15.8226243 C67.9144889,15.8226243 68.7997723,15.8226243 69.3484142,15.8226243 C72.4586338,15.8226243 74.1626728,12.9318584 74.1144184,10.3114462 C74.066164,7.69103408 72.798278,5.08303539 69.3484142,4.80174681 C68.8691899,4.80174681 67.9839066,4.80174681 66.6925642,4.80174681 Z" id="Combined-Shape" fill-rule="nonzero"></path>
                        <polygon id="Rectangle-3" points="83.7418913 0.0409696142 96.852357 0.0409696142 96.852357 4.76080071 88.945254 4.76080071 88.945254 7.6717458 95.9556893 7.6717458 95.9556893 12.2988854 88.945254 12.2988854 88.945254 15.9454303 96.852357 15.9454303 96.852357 20.6160326 83.7418913 20.6160326"></polygon>
                        <path d="M101.850461,0.0409696142 C108.191027,0.0409696142 111.367615,0.0409696142 111.380224,0.0409696142 C115.462916,0.311883977 117.578335,3.00109687 118.143981,5.88622655 C118.726104,8.85539325 117.381725,11.9566558 115.224125,13.3320457 C115.246865,13.3673372 116.837304,15.7953394 119.995443,20.6160523 L113.373815,20.6160523 L109.834958,14.5526864 L107.114609,14.5526864 L107.114609,20.6160523 L101.850461,20.6160523 L101.850461,0.0409696142 Z M107.10537,4.74869561 L107.10537,9.8885649 C109.762257,9.8885649 111.109123,9.8885649 111.145967,9.8885649 C112.503997,9.64802543 113.039938,8.36024528 113.039938,7.24844906 C113.039938,6.25144028 112.596677,5.01591573 111.145967,4.74869561 C111.135035,4.74869561 109.788169,4.74869561 107.10537,4.74869561 Z" id="Combined-Shape" fill-rule="nonzero"></path>
                    </g>
                </g>
            </g>
        </g>
    </g>
</svg>