<?xml version="1.0" encoding="UTF-8"?>
<svg width="22px" height="15px" viewBox="0 0 22 15" version="1.1" xmlns="http://www.w3.org/2000/svg" xmlns:xlink="http://www.w3.org/1999/xlink">
    <!-- Generator: Sketch 52.1 (67048) - http://www.bohemiancoding.com/sketch -->
    <title>Path</title>
    <desc>Created with Sketch.</desc>
    <g id="Page-1" stroke="none" stroke-width="1" fill="none" fill-rule="evenodd">
        <g id="Main" transform="translate(-232.000000, -3904.000000)" fill="#FFFFFF">
            <g id="footer" transform="translate(0.000000, 3768.000000)">
                <g id="soc-icons" transform="translate(225.000000, 126.000000)">
                    <g id="vk">
                        <path d="M17.4233798,24.0557535 L18.696821,24.0557535 C18.696821,24.0557535 19.0814852,24.0098151 19.2778665,23.779494 C19.4586297,23.5680516 19.4528453,23.1709679 19.4528453,23.1709679 C19.4528453,23.1709679 19.4279723,21.3120373 20.2210169,21.038295 C21.002782,20.768643 22.0066689,22.8349256 23.0707139,23.6294077 C23.8753274,24.2306968 24.4867411,24.09886 24.4867411,24.09886 L27.3318105,24.0557535 C27.3318105,24.0557535 28.8201431,23.9560106 28.1144432,22.6829514 C28.056599,22.5788035 27.7034598,21.7412149 25.999079,20.0200994 C24.2151624,18.218749 24.4540591,18.5101115 26.602973,15.3941687 C27.9116991,13.4965366 28.4349004,12.3380088 28.2714903,11.8418115 C28.1156001,11.3692126 27.1530718,11.4941272 27.1530718,11.4941272 L23.9496573,11.5158378 C23.9496573,11.5158378 23.7122066,11.4805975 23.5360709,11.5951287 C23.3639842,11.7074575 23.2532125,11.9692432 23.2532125,11.9692432 C23.2532125,11.9692432 22.7462076,13.4376977 22.0700084,14.6865291 C20.6435692,17.3216923 20.0732249,17.460766 19.8401126,17.2971499 C19.2978227,16.9157985 19.4331783,15.7651368 19.4331783,14.9476856 C19.4331783,12.3940158 19.7892096,11.3292526 18.7399149,11.0536224 C18.3916926,10.9620603 18.1354425,10.9016482 17.2449303,10.8918941 C16.1019279,10.8789936 15.1344829,10.8956699 14.5866978,11.1876617 C14.2222791,11.3817985 13.941156,11.8144372 14.112375,11.8392943 C14.3240849,11.8701296 14.8036138,11.9799412 15.0578392,12.3565729 C15.3861054,12.8423869 15.3745365,13.9335804 15.3745365,13.9335804 C15.3745365,13.9335804 15.5631088,16.9397116 14.9340526,17.3131968 C14.5022452,17.569319 13.9099201,17.0463767 12.6382143,14.6556938 C11.9865988,13.4310902 11.4946335,12.0774816 11.4946335,12.0774816 C11.4946335,12.0774816 11.3997689,11.8245059 11.2305745,11.689208 C11.0252274,11.5252772 10.7383199,11.4730459 10.7383199,11.4730459 L7.6942663,11.4947565 C7.6942663,11.4947565 7.23729673,11.508601 7.06954841,11.724763 C6.92031024,11.9170119 7.05769034,12.3147249 7.05769034,12.3147249 C7.05769034,12.3147249 9.44087341,18.3804773 12.1393076,21.4372665 C14.6135954,24.2398216 17.4233798,24.0557535 17.4233798,24.0557535 Z" id="Path"></path>
                    </g>
                </g>
            </g>
        </g>
    </g>
</svg>